<svg xmlns="http://www.w3.org/2000/svg" width="1200" height="1200" style="shape-rendering:geometricPrecision;text-rendering:geometricPrecision;image-rendering:optimizeQuality;fill-rule:evenodd;clip-rule:evenodd"><path fill="#090806" d="M941.5 319.5v491q.25 133-.5 266c-2.553 20.55-13.719 33.71-33.5 39.5q-313 1.005-626 0c-17.042-5.21-28.042-16.04-33-32.5q.009-135.734 0-272v-494q.012-103.767 0-207 9.351-26.598 37-32.5 309-1 618 0 29.205 5.803 36.5 33.5a7380 7380 0 0 1 1.5 208" style="opacity:.997"/><path fill="#d4af2c" d="M307.5 107.5h69q12.276 1.085 25 2a78 78 0 0 0 7 3 346 346 0 0 0-8 2q-48.107-.933-96 2-1.292-1.638-5-2.5l4-1q-1.817-1.67 0-3.5a71 71 0 0 0 4-2" style="opacity:1"/><path fill="#eccd62" d="M471.5 107.5q101.505-.5 203 1-12.378 5.015 1 5.5-98.999.75-198 .5a813 813 0 0 0-11-2 3.65 3.65 0 0 1 1-1.5 7.3 7.3 0 0 1-3-2q3.804-.279 7-1.5" style="opacity:1"/><path fill="#caaa34" d="M725.5 108.5q49.002-.25 98 .5 4.086.405 8 1.5 4.116-1.465 7 2a3250 3250 0 0 1-114 1 18.5 18.5 0 0 1-6-.5q3.39-2.682 7-4.5" style="opacity:1"/><path fill="#e2be41" d="M376.5 107.5h95q-3.196 1.221-7 1.5a7.3 7.3 0 0 0 3 2 3.65 3.65 0 0 0-1 1.5q5.719 1 11 2h-77a346 346 0 0 1 8-2 78 78 0 0 1-7-3q-12.724-.915-25-2" style="opacity:1"/><path fill="#cca829" d="M881.5 107.5q28.43 4.837 40.5 31a47.1 47.1 0 0 1 2.5 14v2a197 197 0 0 0-1.5 20 189 189 0 0 1-5.5-21h-1l-2-6q-1.518-11.038-9.5-19a120.5 120.5 0 0 0-15.5-11 247 247 0 0 0-7-2q-78.993-1.5-158-1v-1q57.009.5 114-1-2.884-3.465-7-2a47 47 0 0 0-8-1.5q-48.998-.75-98-.5 73.965-1.501 156-1" style="opacity:1"/><path fill="#b09841" d="M307.5 107.5a41195 41195 0 0 1 574 0q-82.035-.501-156 1-3.61 1.818-7 4.5 2.96.743 6 .5v1q-10.281-.486-20 1h-301v-1h74q99.001.25 198-.5-13.378-.485-1-5.5-101.495-1.5-203-1z" style="opacity:1"/><path fill="#b89a2c" d="M704.5 115.5q9.719-1.486 20-1 79.007-.5 158 1 3.703 1.002 7 2a4482 4482 0 0 0-185-2" style="opacity:1"/><path fill="#0a0702" d="M403.5 115.5h301q92.574-.909 185 2a120.5 120.5 0 0 1 15.5 11q7.982 7.962 9.5 19 1.492 446.982 1 894-.306 4.53-1 9-6.285 15.78-21 24-4.415.72-8 3c-1.599-.27-2.932.07-4 1-191.403.33-382.736 0-574-1-2.235.29-4.235-.04-6-1q-2.889-2.685-7-3-14.791-10.14-20-27v-898q6.835-26.835 34-32 47.49-1.5 95-1" style="opacity:1"/><path fill="#ba9617" d="M307.5 107.5a71 71 0 0 1-4 2q-1.817 1.83 0 3.5l-4 1q3.708.862 5 2.5a1192 1192 0 0 1 96-2h3v1q-47.51-.5-95 1-27.165 5.165-34 32a1096 1096 0 0 0-1.5 47 258 258 0 0 0-2-25q-1.517 1.255-3.5 1 .25 11.011-.5 22-.75-22.995-.5-46 5.198-26.975 31-37.5 4.677-2.591 10-2.5" style="opacity:1"/><path fill="#d2ad2b" d="M397.5 129.5q10.722 1.488 22 1v3a2353 2353 0 0 0-97 1q-3.181-.262-6 1a27.6 27.6 0 0 0-5-1.5q2.163-.565 3-2.5 1.144-1.152 3-1.5 39.997-.75 80-.5" style="opacity:1"/><path fill="#e6c348" d="M397.5 129.5h91q.626 1.083 2 1.5l-1 1q-14.263.255-28 1.5h-42v-3q-11.278.488-22-1" style="opacity:1"/><path fill="#eed061" d="M488.5 129.5h209a813 813 0 0 1-11 2 130 130 0 0 0 16 1.5q-120.5.75-241 .5a387 387 0 0 1 28-1.5l1-1q-1.374-.417-2-1.5" style="opacity:1"/><path fill="#020100" d="M322.5 134.5q274.5-.25 549 .5 24.597 7.603 33.5 31.5l1 10q.75 420.5.5 841c-2.882 23.55-15.882 37.88-39 43-181.667.17-363.334 0-545-.5q-30.575-7.08-38.5-37.5-.75-143-.5-286v-258q-.25-153.5.5-307 1.908-9.104 7-17l11.5-11.5a143 143 0 0 1 14-7.5q2.819-1.262 6-1" style="opacity:1"/><path fill="#987d1e" d="M697.5 129.5a5382 5382 0 0 1 178 1.5q30.933 11.172 36 43.5a44 44 0 0 1-2-3 14.7 14.7 0 0 0-1.5 5q-.75 175-.5 350v472c.323 6.52-.01 12.86-1 19q.25-420.5-.5-841l-1-10q-8.903-23.897-33.5-31.5-274.5-.75-549-.5a2353 2353 0 0 1 97-1h42q120.5.25 241-.5a130 130 0 0 1-16-1.5 813 813 0 0 0 11-2" style="opacity:1"/><path fill="#e7c74e" d="M861.5 145.5v3h-533q-1.937-1.562 0-3.5 266.75-1.25 533 .5" style="opacity:1"/><path fill="#e0c24c" d="M861.5 145.5q1.401 1.602 1 4-267.25.5-534-1h533z" style="opacity:1"/><path fill="#f2cf51" d="M645.5 162.5q19.088-2.626 28.5 14 3.411 32.087-28.5 29.5-3.082-1.03-5-3.5 14.295-9.1 11.5-26a40.1 40.1 0 0 0-8.5-12 31 31 0 0 0 2-2" style="opacity:1"/><path fill="#eac84e" d="M710.5 162.5q19.143-.38 22 19-1.227 25.981-27 23.5 25.748-9.26 15.5-34.5a66 66 0 0 0-10.5-8" style="opacity:1"/><path fill="#f2cf51" d="M529.5 163.5a72.4 72.4 0 0 1 12 .5 6.8 6.8 0 0 1 3 1.5q-12.44 12.057-5.5 28 4.035 6.285 10.5 10-18.848 10.35-31.5-7-4.859-11.58 0-23 5.152-5.917 11.5-10" style="opacity:1"/><path fill="#f5d252" d="M586.5 163.5q19.483-2.883 29.5 14 2.166 35.77-32.5 27.5-14.01-10.217-10.5-27.5 5.039-8.786 13.5-14" style="opacity:1"/><path fill="#85712c" d="M891.5 165.5a29.2 29.2 0 0 0-9 1q.166-.925 1-1.5 4.3-1.201 8 .5" style="opacity:1"/><path fill="#e7c64d" d="M298.5 164.5q20.235.433 13.5 19-13.098 11.486-21-4a12.5 12.5 0 0 1 0-7q3.042-4.788 7.5-8" style="opacity:1"/><path fill="#efcc50" d="M891.5 165.5q3.098.68 5 3 2.628 5.59 2 12-.539 4.106-4 6a34.2 34.2 0 0 1-10 1q-5.604-2.107-7-8-.245-3.535.5-7a17.4 17.4 0 0 0 4.5-6 29.2 29.2 0 0 1 9-1" style="opacity:1"/><path fill="#ebc94f" d="M482.5 207.5a83 83 0 0 1-14-1q-13.132-6.481-13-21.5 1.346-14.875 15.5-20.5l1.5.5q-12.31 7.937-9.5 22.5 6.245 18.247 25.5 17.5a13.5 13.5 0 0 1-6 2.5" style="opacity:1"/><path fill="#b59b3d" d="M882.5 166.5a17.4 17.4 0 0 1-4.5 6 25 25 0 0 0-.5 7q-3.583-8.835 5-13" style="opacity:1"/><path fill="#ae943a" d="M896.5 168.5q5.506 4.124 3.5 11-.575.834-1.5 1 .628-6.41-2-12" style="opacity:1"/><path fill="#4d421c" d="M894.5 186.5q-.166.925-1 1.5-4.794 1.207-9-.5a34.2 34.2 0 0 0 10-1" style="opacity:1"/><path fill="#e9c74c" d="M304.5 196.5q2.343.35 4 2 2.58 5.084 2 11-.797 3.186-4 4.5a16.24 16.24 0 0 1-8 0q-.834-.575-1-1.5-2.103-6.602.5-13 2.764-2.506 6.5-3" style="opacity:1"/><path fill="#dfbf4b" d="M883.5 196.5q14.76-1.086 12.5 13-4.345 6.983-12.5 4.5-9.954-8.863 0-17.5" style="opacity:1"/><path fill="#9e7f14" d="M266.5 147.5q-.25 23.005.5 46 .75-10.989.5-22 1.983.255 3.5-1a258 258 0 0 1 2 25 1096 1096 0 0 1 1.5-47v898q-1.5-194.249-1-389v-239q.25-26.005-.5-52a384 384 0 0 1-2 29q-1.5 2-3 0l-1-25a217 217 0 0 1-1.5 21q-.499-122.253 1-244" style="opacity:1"/><path fill="#c2a640" d="M304.5 196.5q-3.736.494-6.5 3-2.603 6.398-.5 13-9.908-12.171 5.5-17 1.147.105 1.5 1" style="opacity:1"/><path fill="#b0963a" d="M308.5 198.5q5.367 3.603 3.5 10-.574.834-1.5 1 .58-5.916-2-11" style="opacity:1"/><path fill="#9c8634" d="M468.5 206.5a83 83 0 0 0 14 1q-2.45.991-5.5 1-4.725.21-8.5-2" style="opacity:1"/><path fill="#daba49" d="M300.5 227.5q10.824-1.218 6 8-10.059 1.908-6-8" style="opacity:1"/><path fill="#d7b848" d="M883.5 227.5q10.824-1.218 6 8-10.059 1.908-6-8" style="opacity:1"/><path fill="#3f3615" d="M594.5 292.5q-.925-.166-1.5-1-.417 1.374-1.5 2v-4h3z" style="opacity:1"/><path fill="#b3993c" d="M594.5 292.5q2.237 17.2 2 35a361 361 0 0 0-2.5-21q-.324 2.826-2 5-.23 12.826-2.5 25a777 777 0 0 1 2-43q1.083-.626 1.5-2 .575.834 1.5 1" style="opacity:1"/><path fill="#e7c64e" d="M596.5 327.5q1.727 8.227.5 17-2.826 3.115-6.5 1a23.8 23.8 0 0 1-1-9q2.27-12.174 2.5-25 1.676-2.174 2-5a361 361 0 0 1 2.5 21" style="opacity:1"/><path fill="#8a772e" d="M635.5 308.5h7q.356 1.937-1 3-2.484-2.34-6-3" style="opacity:1"/><path fill="#d6b748" d="M554.5 304.5q2.634 1.578 2 5 3.248-.576 5 2a9.86 9.86 0 0 1-6 1q.5 4.5-4 4v-5q-3.716.674-6-2 5.916-.426 9-5" style="opacity:1"/><path fill="#d9ba49" d="M635.5 308.5q3.516.66 6 3h-5q.674 3.715-2 6-2.175-2.024-2-5a9.86 9.86 0 0 1-6-1q1.752-2.576 5-2 .225-9.359 4-1" style="opacity:1"/><path fill="#fad957" d="M941.5 321.5v-2q2.505.377 4.5 2 .858-4.81 5.5-5-.94 4.222-4 7.5-1.5 1-3 0a10.5 10.5 0 0 0-3-2.5" style="opacity:.176"/><path fill="#fbd654" d="M248.5 317.5v3q-9.516 9.162-12-4 4.642.19 5.5 5a38.7 38.7 0 0 1 6.5-4" style="opacity:.09"/><path fill="#ab890c" d="M314.5 131.5q-.837 1.935-3 2.5 2.62.528 5 1.5a143 143 0 0 0-14 7.5L291 154.5q-5.092 7.896-7 17-.75 153.5-.5 307-1.248-35.745-1.5-72l-1 18-1-19a677 677 0 0 1-1.5 37q-.25-135.5.5-271 6.24-30.002 35.5-40" style="opacity:1"/><path fill="#6d5d25" d="M372.5 341.5q-2 0-2 2-2.488-2.001-4-5 4.144-1.45 6 3" style="opacity:1"/><path fill="#5c4f1f" d="M476.5 349.5a50.5 50.5 0 0 0-.5-10q-.574.834-1.5 1-.22-3.663 2.5-2 1.215 5.787-.5 11" style="opacity:1"/><path fill="#816e2b" d="M815.5 343.5a2.43 2.43 0 0 0-.5-2q-1.694 2.462-4.5 3 3.33-4.18 8-7 1.45 4.144-3 6" style="opacity:1"/><path fill="#7b6929" d="M891.5 346.5q2.17-2.078 3 1a5.73 5.73 0 0 0-3-1" style="opacity:1"/><path fill="#9d8635" d="M713.5 343.5v8h10q-3.732 2.832-9 2-.687 15.743-3 0l-21-2h21a36.4 36.4 0 0 1-.5-12 4.46 4.46 0 0 1 1.5-2 9.86 9.86 0 0 1 1 6" style="opacity:1"/><path fill="#a58d37" d="M476.5 349.5q8.361 2.93 18 2l-18 2q-2.313 15.743-3 0a25.9 25.9 0 0 1-10-1 31.1 31.1 0 0 1 11-1v-11q.926-.166 1.5-1 .747 4.975.5 10" style="opacity:1"/><path fill="#383013" d="M713.5 343.5q1.452 3.161 1 7 4.82-.465 9 1h-10z" style="opacity:1"/><path fill="#6a5b23" d="M494.5 351.5q4.648-.13 1 1.5-9.487.75-19 .5z" style="opacity:1"/><path fill="#6b5c24" d="m690.5 351.5 21 2a122 122 0 0 1-22-1q.186-.91 1-1" style="opacity:1"/><path fill="#d4ac1f" d="M911.5 174.5v2q.25 181-.5 362l-1-15q-.565 2.163-2.5 3-.25-175 .5-350a14.7 14.7 0 0 1 1.5-5 44 44 0 0 0 2 3" style="opacity:1"/><path fill="#b39a3c" d="M527.5 348.5a112 112 0 0 0 5 2q-2.572 3.573-6 6-1.487.258-2-1a14.7 14.7 0 0 1 3-3.5q-.342-.598-1-.5-.356-1.937 1-3" style="opacity:1"/><path fill="#746327" d="M524.5 355.5q.513 1.258 2 1 2.55 2.565 4 6-3.851 2.03-7-1 5.116-1.663 0-5 .186-.91 1-1" style="opacity:1"/><path fill="#685923" d="M527.5 348.5q-1.356 1.063-1 3-6.822.452-9.5-6a135 135 0 0 0-2.5 7 36.2 36.2 0 0 0-7 4 51 51 0 0 0 6 2q1.197.686 1 2-.979 1.423-1 3.5.162 2.522 2 3.5-1.063 1.356-3 1v-9a38.2 38.2 0 0 1-11-2 87 87 0 0 1 11-6l2-11q4.617 4.132 9 8 2.476-3.352 4 0" style="opacity:1"/><path fill="#625421" d="M675.5 365.5q-2.243-.733-4-2 2.216-6.194 9-7a90 90 0 0 1-7.5-5 20.6 20.6 0 0 0-2-6 208 208 0 0 1-4.5 5l-9-2a41 41 0 0 0 9-.5 28.6 28.6 0 0 1 7-7.5 52 52 0 0 1 1.5 10 203 203 0 0 0 11.5 7 38.2 38.2 0 0 1-11 2z" style="opacity:1"/><path fill="#7f6c2a" d="m657.5 348.5 9 2q-2.688 1.214-6 1.5a274 274 0 0 1 4 4 605 605 0 0 0-3 3.5l3 2q-3.235 2.264-7 3 .393-4.787 4-8a39 39 0 0 1-5.5-5 12.4 12.4 0 0 1-2.5 4l-1-1a60.5 60.5 0 0 1 4-8q1.197.686 1 2" style="opacity:1"/><path fill="#e9c74e" d="M372.5 341.5a617 617 0 0 1 49 44.5q11.874 4.384 3 13-6.897 1.636-8.5-5.5a3175 3175 0 0 1-45.5-50q0-2 2-2" style="opacity:1"/><path fill="#e8c74e" d="M815.5 343.5a3780 3780 0 0 1-49 55.5q-10.236.741-7.5-9.5a3222 3222 0 0 1 51.5-45q2.806-.538 4.5-3 .696.891.5 2" style="opacity:1"/><path fill="#9e8835" d="M671.5 363.5q1.757 1.267 4 2v3q-5.447-1.662-9-6.5 2.993-.92 5 1.5" style="opacity:1"/><path fill="#ac933a" d="M514.5 360.5q-.157 6.981 4 1.5 1.5-1 3 0a46 46 0 0 1-6 5.5q-1.838-.978-2-3.5.021-2.077 1-3.5" style="opacity:1"/><path fill="#6e5e25" d="M688.5 362.5q1.447 1.831-.5 4a377 377 0 0 1-4.5 5q-1.532-.752-.5-2 3.487-3.001 5.5-7" style="opacity:1"/><path fill="#7f6c2a" d="M495.5 365.5q4.081 1.794 3.5 6-2.92-2.344-3.5-6" style="opacity:1"/><path fill="#594c1e" d="M551.5 382.5q-3.74-.554-2 2-2.243.128-3-2 2.698-1.932 5 0" style="opacity:1"/><path fill="#9a8434" d="M627.5 379.5h3v3q5.025-.247 10 .5-3.543 2.597-8 2.5-.224 5.435-3.5 1-3.781 1.76-7.5 0a63 63 0 0 1 7-3.5q-1.255-1.517-1-3.5" style="opacity:1"/><path fill="#a28a36" d="M549.5 384.5q-1.74-2.554 2-2 4.869.548 8-3 1.717 1.914 0 4 14.154 4.52-.5 3-3.276 4.435-3.5-1-3.181.262-6-1" style="opacity:1"/><path fill="#b0973b" d="M457.5 386.5q5.498.476 4.5 6-3.457-2.283-4.5-6" style="opacity:1"/><path fill="#bba03f" d="M722.5 386.5q2.588.514 1.5 3l-4 4q.33-3.694 2.5-7" style="opacity:1"/><path fill="#9f8935" d="M463.5 405.5a16.1 16.1 0 0 1 5 2q8.367-4.456 3 2a580 580 0 0 0 6 5l-1.5 1a81 81 0 0 0-7.5-4 16.3 16.3 0 0 0-4.5 2l-1.5-1a15 15 0 0 1 3-3.5q-1.984-1.224-2-3.5" style="opacity:1"/><path fill="#ba9613" d="M273.5 418.5a189 189 0 0 1-3 20q-1.388-1.712-2.5 0l-1-20a1499 1499 0 0 1-1.5 55v-82a217 217 0 0 0 1.5-21l1 25q1.5 2 3 0a384 384 0 0 0 2-29q.75 25.995.5 52" style="opacity:1"/><path fill="#9d8635" d="M713.5 405.5q3.265.13 6 2 2.868-2.484 6-1l-3 2.5a15 15 0 0 1 3 3.5l-1.5 1a16.3 16.3 0 0 0-4.5-2l-8 4-1-1a580 580 0 0 0 6-5q-1.989-1.713-3-4" style="opacity:1"/><path fill="#706026" d="M496.5 387.5a914 914 0 0 1 51 70.5q-1 1-2 0a2816 2816 0 0 1-49-70.5" style="opacity:1"/><path fill="#7b6829" d="M593.5 413.5q.09-.814 1-1a13.1 13.1 0 0 1 1 7z" style="opacity:1"/><path fill="#625421" d="M549.5 388.5q2.2 1.27 2.5 4a811 811 0 0 1 20.5 88.5l-1 1.5a2396 2396 0 0 0-22-94" style="opacity:1"/><path fill="#635521" d="M637.5 388.5q.936.626 1 2a1536 1536 0 0 0-22 92q6.24-47.671 21-94" style="opacity:1"/><path fill="#706026" d="M522.5 397.5q1.438.679 2.5 2a2447 2447 0 0 0 38.5 71.5q-1 1-2 0a1193 1193 0 0 1-39-73.5" style="opacity:1"/><path fill="#736327" d="M690.5 387.5q1.447 1.831-.5 4a2214 2214 0 0 0-46 65q-1.256 2.26-3.5 1.5a1630 1630 0 0 1 50-70.5" style="opacity:1"/><path fill="#f1cf51" d="m593.5 413.5 2 6a8362 8362 0 0 1 3 54q-.615 16.828 2 33a84 84 0 0 0 1 17v21q1.937.356 3-1a785 785 0 0 1 42-39.5 304 304 0 0 1 29-21.5q1.624 1.298.5 3a667 667 0 0 1-60.5 70 10.3 10.3 0 0 0 4 1.5q39.492 2.535 79 4.5 18.18 2.622 37 2h5q0 1 1 1a2429 2429 0 0 1-41 4 2440 2440 0 0 0-57 3 247 247 0 0 0-23 2q-2.682-.428-5 1a1023 1023 0 0 1 56.5 64 47 47 0 0 1 4.5 8l-1 1a281 281 0 0 1-28-20.5 2515 2515 0 0 1-44-40.5 149 149 0 0 0-2 21 444 444 0 0 0-3 45q-1.982 15.711-2 32a122.6 122.6 0 0 1-2.5 32 47 47 0 0 1-1.5-11q.324-22.793-2-45a139 139 0 0 1-1-23q.619-13.35-2-26a97 97 0 0 1-1-16 25.9 25.9 0 0 0-1-10q-.91.186-1 1a992 992 0 0 1-63 55.5l-9 5.5-1-1a559 559 0 0 1 16.5-23 762 762 0 0 1 44.5-48q1.356-1.063 1-3h-15a5730 5730 0 0 0-110-6q-.626-1.083-2-1.5l5-1a309 309 0 0 0 25-1.5 3363 3363 0 0 0 97-6.5 4812 4812 0 0 1-44.5-48.5 452 452 0 0 1-17-23q-1.032-1.248.5-2a333 333 0 0 1 34 25.5 1887 1887 0 0 0 38 35.5q.09.814 1 1a13.1 13.1 0 0 0 1-7v-8q2.512-15.175 2-31 .39-8.508 1-17a562 562 0 0 0 3-59 41.7 41.7 0 0 1 1-9" style="opacity:1"/><path fill="#6f5f25" d="M664.5 397.5q1.61 1.126.5 3a1213 1213 0 0 1-39 71q-.385-3.775 2-7 18.269-33.54 36.5-67" style="opacity:1"/><path fill="#a48c37" d="M745.5 432.5q2.468 1.468 4 4a9.4 9.4 0 0 1 3-3l1 1.5-2 4q1.364 2.684.5 5.5a7.25 7.25 0 0 0-2.5-2l-6 6-1-1a110 110 0 0 0 5-8.5q-2.269-2.819-2-6.5" style="opacity:1"/><path fill="#9d8735" d="M298.5 346.5q-1.083.626-1.5 2-.75 249.5-.5 499a41681 41681 0 0 1-.5-500q.901-2.788 2.5-1" style="opacity:1"/><path fill="#83702c" d="M592.5 422.5a562 562 0 0 1-3 59 1475 1475 0 0 1 3-59" style="opacity:1"/><path fill="#b89d3d" d="M406.5 437.5q4.088 1.82 7 5.5-3.147-.048-6-2-1.255-1.517-1-3.5" style="opacity:1"/><path fill="#a99139" d="M773.5 437.5h3q-1.528 5.28-7 5.5 2.946-2.176 4-5.5" style="opacity:1"/><path fill="#9d8635" d="M441.5 432.5q1.314-.197 2 1a43 43 0 0 1-3 5.5 110 110 0 0 0 5 8.5l-1 1a58 58 0 0 1-5.5-7q-5.248 5.72-2.5-2.5a27 27 0 0 0-2-4.5l1-1q3.73 4.141 6-1" style="opacity:1"/><path fill="#a28a36" d="M380.5 434.5q2.853 4.256 2 10 15.703.302 0 2a122 122 0 0 1-1 22 111 111 0 0 1-1-21q-25.845-.558 0-3z" style="opacity:1"/><path fill="#a48c37" d="M805.5 434.5q2.87 4.776 2 11a85 85 0 0 1 13 .5q-6.202 2.146-13 1.5-1 42-2 0-4.473.594-8-2a16.9 16.9 0 0 1 8-1z" style="opacity:1"/><path fill="#7c6a2a" d="M701.5 416.5q1.447 1.831-.5 4a978 978 0 0 1-59 70q.597-3.197 3-6a1809 1809 0 0 0 56.5-68" style="opacity:1"/><path fill="#6a5b23" d="M535.5 459.5q-1.257.512-1 2a38.3 38.3 0 0 1-5-7q3.509.923 6 5" style="opacity:1"/><path fill="#7f6c2a" d="M652.5 463.5q-.657-1.509-2 0a93 93 0 0 1 7.5-10q.473 2.112-1 4a34 34 0 0 0-4.5 6" style="opacity:1"/><path fill="#7a6929" d="M485.5 416.5a5477 5477 0 0 0 58.5 69q1.934 2.332 2 5a731 731 0 0 1-60.5-74" style="opacity:1"/><path fill="#d8b948" d="M535.5 459.5a352 352 0 0 1 28 41.5q-.525 1.886-2 1a175.8 175.8 0 0 1-27-40.5q-.257-1.488 1-2" style="opacity:1"/><path fill="#5e501f" d="M817.5 485.5q-1.161-.97-3-1-2.295.21-3 2a27.6 27.6 0 0 0-5-1.5 85 85 0 0 0-4.5-7.5q.542 8.206-7.5 8l-1-2q2.951.359 5.5-1a46 46 0 0 1 2-10 56.4 56.4 0 0 1 6.5 10.5q5.567.263 11 1.5-.186.91-1 1" style="opacity:1"/><path fill="#7d6b2a" d="M739.5 456.5a2.43 2.43 0 0 1 2 .5 2935 2935 0 0 0-70 59q-1.888 1.473-4 1a1691 1691 0 0 1 72-60.5" style="opacity:1"/><path fill="#584b1e" d="m394.5 483.5-1 2q-8.079.46-7.5-8-2.187 7.512-9.5 9-.705-1.79-3-2-1.839.03-3 1-.814-.09-1-1a62.7 62.7 0 0 1 11-1.5l6.5-10.5a34.5 34.5 0 0 1 2.5 11z" style="opacity:1"/><path fill="#796829" d="M446.5 457.5q.09-.814 1-1a1244 1244 0 0 1 73 60.5q-2.668-.066-5-2a1868 1868 0 0 0-69-57.5" style="opacity:1"/><path fill="#ddbd4a" d="M652.5 463.5a174.7 174.7 0 0 1-26 39q-1.671-1.834-.5-4a439 439 0 0 1 24.5-35q1.343-1.509 2 0" style="opacity:1"/><path fill="#cfa820" d="M273.5 418.5v78q-1.245 11.774-2.5 24-2.518 1.773.5 3.5l-.5 1.5q-1.064-2.21-3.5-2-1.641 40.988-1 160h-1v-210a1499 1499 0 0 0 1.5-55l1 20q1.112-1.712 2.5 0a189 189 0 0 0 3-20" style="opacity:1"/><path fill="#a78e38" d="M394.5 483.5h3q-.887 4.671-5 7.5-1.248 1.032-2-.5 2.178-2.16 3-5z" style="opacity:1"/><path fill="#a08936" d="m793.5 483.5 1 2q5.618 11.557-3.5 1a4.93 4.93 0 0 1-.5-3z" style="opacity:1"/><path fill="#7d6b2a" d="M598.5 473.5a618 618 0 0 1 2 33q-2.615-16.172-2-33" style="opacity:1"/><path fill="#85722d" d="M817.5 485.5a34.8 34.8 0 0 1-7 7l-2 11a55 55 0 0 1-6.5-6q-11.488 8.906-4.5-4l2 3 3-2a25.5 25.5 0 0 1 4.5 4q-.018-7.507 6.5-11.5a2.43 2.43 0 0 0-2-.5q.705-1.79 3-2 1.839.03 3 1" style="opacity:1"/><path fill="#83702c" d="M376.5 486.5a2.43 2.43 0 0 0-2 .5q6.518 3.993 6.5 11.5a25.5 25.5 0 0 1 4.5-4l3 2 2-3q3.229 3.644 2 8l-7-4a25.7 25.7 0 0 1-6 6l-2-11a34.8 34.8 0 0 1-7-7q1.161-.97 3-1 2.295.21 3 2" style="opacity:1"/><path fill="#e6c64d" d="M891.5 346.5a5.73 5.73 0 0 1 3 1v501q-1.983.255-3.5-1-1.25-250.75.5-501" style="opacity:1"/><path fill="#726226" d="M416.5 466.5a5645 5645 0 0 0 72 50.5q-2.684.78-5-1a1103 1103 0 0 1-63-45q-2.538-1.96-4-4.5m354 0q.814.09 1 1a861 861 0 0 1-70 50l-1-1a2709 2709 0 0 0 70-50" style="opacity:1"/><path fill="#695a23" d="M699.5 506.5q-.513-1.258-2-1a38.3 38.3 0 0 1 7-5q1.532.752.5 2a33.7 33.7 0 0 0-5.5 4" style="opacity:1"/><path fill="#6c5c24" d="M813.5 505.5q1.762-.329 3 1l-8 4-1-1a525 525 0 0 0 6-4" style="opacity:1"/><path fill="#695a23" d="M366.5 505.5a19.4 19.4 0 0 1 9 4l-1 1a23.7 23.7 0 0 0-6-2.5q-1.884-.625-2-2.5" style="opacity:1"/><path fill="#8d782f" d="M495.5 508.5q-1.488-.258-2 1a2350 2350 0 0 1-10-7q-2-1 0-2 6.097 4.035 12 8" style="opacity:1"/><path fill="#706025" d="M758.5 493.5q3.513.412 0 2.5a3439 3439 0 0 0-69 37q-1.5 1-3 0a1261 1261 0 0 1 72-39.5" style="opacity:1"/><path fill="#dbbb49" d="M495.5 508.5a139.5 139.5 0 0 1 37 25l-1.5 1q-20.223-10.507-37.5-25 .512-1.258 2-1" style="opacity:1"/><path fill="#d7b848" d="M697.5 505.5q1.487-.258 2 1a350 350 0 0 1-42 28q-1.532-.752-.5-2 18.033-16.774 40.5-27" style="opacity:1"/><path fill="#706126" d="M850.5 523.5a169 169 0 0 1-2-6q-1.428 2.318-1 5h-5q1.602-1.401 4-1-.674-3.716 2-6a3.65 3.65 0 0 1 1.5 1q.745 3.465.5 7" style="opacity:1"/><path fill="#dbbb49" d="M339.5 530.5v-4q-2.975.514-4-2 1.063-1.356 3-1v-7h3v6h5q.174 5.115-5 4a18.5 18.5 0 0 1-.5 6q-.417-1.374-1.5-2" style="opacity:1"/><path fill="#ddbd4a" d="M850.5 523.5q4.335.04 3 3.5a12.9 12.9 0 0 1-5 .5q-2.193 9.763-2-1-6.026.992-4-4h5q-.428-2.682 1-5a169 169 0 0 0 2 6" style="opacity:1"/><path fill="#a78e38" d="M414.5 522.5q.379 5.31 2 10a5.6 5.6 0 0 0 1 3q-1.237 1.329-3 1l-1-6q-7.45-.126-1-4-1.612-4.407-.5-9 2.824 1.729 2.5 5" style="opacity:1"/><path fill="#705f25" d="M335.5 524.5q1.025 2.514 4 2v4q-1.356-1.063-1-3-3.248.576-5-2 .686-1.197 2-1" style="opacity:1"/><path fill="#6c5c24" d="M427.5 494.5q3.406-.831 7 1.5a3225 3225 0 0 1 67 37q-3.63-.037-7-2a141605 141605 0 0 1-67-36.5" style="opacity:1"/><path fill="#736326" d="M588.5 498.5q.512 15.825-2 31a333 333 0 0 1 2-31" style="opacity:1"/><path fill="#4b4119" d="M773.5 522.5v4q-1.937-.356-3 1-.814-.09-1-1 1.238-1.329 3-1-.356-1.937 1-3" style="opacity:1"/><path fill="#655622" d="M766.5 519.5q2.217-.393 4 1a723 723 0 0 1-87 21.5 12.5 12.5 0 0 1-7 0 1579 1579 0 0 1 54-12 322 322 0 0 0 36-10.5" style="opacity:1"/><path fill="#ae953b" d="M770.5 527.5q1.063-1.356 3-1v-4a16.5 16.5 0 0 1 2.5-5v10q6.67 3.067-1.5 3 .558 3.783-2.5 6-.939-3.32.5-6.5-.834-1.516-2-2.5" style="opacity:1"/><path fill="#675922" d="M414.5 522.5q1.356 1.063 1 3 1.763-.329 3 1-2.38 2.51-2 6-1.621-4.69-2-10" style="opacity:1"/><path fill="#635421" d="M417.5 519.5a1605 1605 0 0 0 94 22.5 37.6 37.6 0 0 1-13-1 751 751 0 0 1-79-19.5q-1.82-.37-2-2" style="opacity:1"/><path fill="#8b772e" d="M601.5 523.5q.525 10.343 3 20-1.063 1.356-3 1z" style="opacity:1"/><path fill="#8f7a30" d="M586.5 537.5a13.1 13.1 0 0 1-1 7q-.91-.186-1-1z" style="opacity:1"/><path fill="#85722d" d="M372.5 560.5a246 246 0 0 1-24 1 304 304 0 0 1 19.5-2q2.56.013 4.5 1" style="opacity:1"/><path fill="#3f3616" d="M813.5 560.5q3.717-.996 8-1 13.265.566 26 2a760 760 0 0 1-34-1" style="opacity:1"/><path fill="#edcb4f" d="M372.5 560.5q5.048 2.603 1 6.5-14.264 1.236-28-.5-7.274-1-15-2a71 71 0 0 0 4-2q2.872.426 5-1h9q12.032.087 24-1" style="opacity:1"/><path fill="#e3c24c" d="M813.5 560.5a760 760 0 0 0 34 1q5.949.993 12 1 1.145 1.152 3 1.5l-1 1q-6.779.262-13 1.5a236 236 0 0 1-36 .5q-2.28-3.827 1-6.5" style="opacity:1"/><path fill="#947e31" d="M698.5 561.5a706 706 0 0 1 37 2q-18.82.622-37-2" style="opacity:1"/><path fill="#816e2b" d="M476.5 562.5a309 309 0 0 1-25 1.5l-5 1q1.374.417 2 1.5a13.1 13.1 0 0 1-7-1 3.65 3.65 0 0 1 1-1.5 243 243 0 0 1 34-1.5" style="opacity:1"/><path fill="#463c18" d="M740.5 563.5h6v3h-4q1.145-1.152 3-1.5a8.4 8.4 0 0 0-4-.5q-1 0-1-1" style="opacity:1"/><path fill="#ddb62b" d="M273.5 496.5v161q-1.495 29.763-3 60l-2-1a183 183 0 0 0-1.5 19 1352 1352 0 0 1-.5-52q-.641-119.012 1-160 2.436-.21 3.5 2l.5-1.5q-3.018-1.727-.5-3.5 1.255-12.226 2.5-24" style="opacity:1"/><path fill="#5d501f" d="M339.5 561.5q-2.128 1.426-5 1a27.9 27.9 0 0 0-11 1.5 41.4 41.4 0 0 0 6 2.5 49.4 49.4 0 0 1-11-1v-3a145 145 0 0 1 21-1" style="opacity:1"/><path fill="#c2a641" d="M334.5 562.5a71 71 0 0 1-4 2q7.726 1 15 2h-16a41.4 41.4 0 0 1-6-2.5 27.9 27.9 0 0 1 11-1.5" style="opacity:1"/><path fill="#746327" d="M859.5 562.5h8v3a124 124 0 0 1-19 1q6.221-1.238 13-1.5l1-1q-1.855-.348-3-1.5" style="opacity:1"/><path fill="#84702c" d="M741.5 564.5a8.4 8.4 0 0 1 4 .5q-1.855.348-3 1.5a1580 1580 0 0 1-42 2 2429 2429 0 0 0 41-4" style="opacity:1"/><path fill="#161202" d="m914.5 147.5 2 6v888h-1q.492-447.018-1-894" style="opacity:1"/><path fill="#968032" d="M558.5 572.5h15q.356 1.937-1 3-6.619-2.457-14-3" style="opacity:1"/><path fill="#3a3216" d="M643.5 571.5q-11.134 2.632-23 2a247 247 0 0 1 23-2" style="opacity:1"/><path fill="#645521" d="M509.5 586.5q1.314-.197 2 1a4829 4829 0 0 0-94 21.5 229 229 0 0 1 28-9q32.143-7.8 64-13.5" style="opacity:1"/><path fill="#776628" d="M774.5 598.5q-1.152-1.145-1.5-3a4.93 4.93 0 0 0-.5 3q-1.94-2.796 0-6 2.38 2.51 2 6" style="opacity:1"/><path fill="#6c5d24" d="M584.5 586.5q.09-.814 1-1a25.9 25.9 0 0 1 1 10z" style="opacity:1"/><path fill="#6e5e25" d="M774.5 598.5q2.682-.428 5 1-.757 2.128-3 2 .166-.925 1-1.5-1.855-.348-3-1.5" style="opacity:1"/><path fill="#a88f38" d="M414.5 593.5q3.528 2.178 1 6a9.4 9.4 0 0 0 3 3q-1.783 1.393-4 1 .097 4.457-2.5 8-1.112-4.593.5-9-8.487-4.006 1-4a20.7 20.7 0 0 1 1-5" style="opacity:1"/><path fill="#615320" d="M676.5 586.5a890 890 0 0 1 66 13.5 229 229 0 0 1 28 9 2202 2202 0 0 0-91-20q-2.428-.354-3-2.5m-334 16q-1.471-7.876-3 0-2.975-.514-4 2-2.292-.026-1.5-2 2.034-1.32 4.5-1-.384-3.618 3-5a9.86 9.86 0 0 1 1 6" style="opacity:1"/><path fill="#5a4e1c" d="M848.5 598.5q-.925-.166-1.5-1-.297 2.822-1.5 5v-6q2.518-.322 3 2" style="opacity:1"/><path fill="#51451b" d="M848.5 598.5q1.356 1.063 1 3 2.398-.401 4 1h-5z" style="opacity:1"/><path fill="#d9ba49" d="M695.5 621.5q-.513 1.257-2 1a139.5 139.5 0 0 1-37-25l1.5-1q20.223 10.507 37.5 25m-353-19q4.896.339 3 4.5a8.4 8.4 0 0 1-4 .5q.674 3.716-2 6a16.9 16.9 0 0 1-1-8q-1.937.356-3-1 1.025-2.514 4-2 1.529-7.876 3 0" style="opacity:1"/><path fill="#dfbf4b" d="M848.5 598.5v4h5q-.29 3.618-4 3a16.9 16.9 0 0 1-1 8q-.91-.186-1-1v-6h-5q-1.701-3.69 3-4 1.203-2.178 1.5-5 .575.834 1.5 1" style="opacity:1"/><path fill="#b0973b" d="M774.5 598.5q1.145 1.152 3 1.5-.834.575-1 1.5a21.1 21.1 0 0 1-1 9 18.4 18.4 0 0 1-2-7q-2.217.393-4-1 2.682-1.174 3-4a4.93 4.93 0 0 1 .5-3q.348 1.855 1.5 3" style="opacity:1"/><path fill="#dfbf4b" d="M499.5 619.5a2.43 2.43 0 0 1-2-.5q1.321-1.062 2-2.5 13.91-11.628 30-20.5 1.702-1.124 3 .5-14.421 14.41-33 23" style="opacity:1"/><path fill="#7b6929" d="M842.5 606.5h5v6q-1.426-2.128-1-5-2.398.401-4-1" style="opacity:1"/><path fill="#c9a525" d="M283.5 478.5v258q-1.485-8.715-1-18 .25-117.001-.5-234l-1 26-1-21q-.25 79.253-1.5 158v-205a677 677 0 0 0 1.5-37l1 19 1-18q.252 36.255 1.5 72" style="opacity:1"/><path fill="#706025" d="M686.5 596.5q.09-.814 1-1a2212 2212 0 0 1 74 40l-1 1a1970 1970 0 0 1-74-40" style="opacity:1"/><path fill="#f9d855" d="M298.5 346.5a41848 41848 0 0 1 .5 501q-1.466 1.911-2.5 0-.25-249.5.5-499 .417-1.374 1.5-2" style="opacity:1"/><path fill="#ad943a" d="M499.5 616.5q-.679 1.438-2 2.5a2.43 2.43 0 0 0 2 .5 6875 6875 0 0 1-12 7v-2a71 71 0 0 1 12-8" style="opacity:1"/><path fill="#b49a3c" d="M587.5 611.5q2.619 12.65 2 26a317 317 0 0 1-2-26" style="opacity:1"/><path fill="#493e1a" d="M601.5 607.5a403 403 0 0 1-3 45q.372-22.8 3-45" style="opacity:1"/><path fill="#6f5f25" d="M499.5 595.5q1.314-.197 2 1a1962 1962 0 0 1-74 40l-1-1a30532 30532 0 0 1 73-40" style="opacity:1"/><path fill="#756427" d="M695.5 621.5a31.5 31.5 0 0 1 9 5.5q1.816 1.34 0 2.5a99 99 0 0 0-11-7q1.487.257 2-1m-270 35q-1 0-1-1a2721 2721 0 0 1 58-41.5q2.853-1.952 6-2a3981 3981 0 0 1-63 44.5" style="opacity:1"/><path fill="#5c4e1f" d="M487.5 624.5v2q-1.748 2.874-5 2.5a31.5 31.5 0 0 1 5-4.5" style="opacity:1"/><path fill="#796828" d="M393.5 643.5q1.025 2.514 4 2-4.18 1.465-9 1a52 52 0 0 1-1.5 10 56.4 56.4 0 0 1-6.5-10.5 62.7 62.7 0 0 1-11-1.5 32.4 32.4 0 0 1 8.5-8q-1.512-18.517 8-4 2.91-4.353 7.5-3a17.5 17.5 0 0 1-3 6 6.8 6.8 0 0 1-1.5-3q-4.958 4.064-8-2l-1 7a18.8 18.8 0 0 1-5.5 4.5 22.5 22.5 0 0 0 7 2 85 85 0 0 0 4.5 7.5q-.037-7.709 7.5-8" style="opacity:1"/><path fill="#716126" d="M699.5 612.5q1.126-1.61 3-.5a1336 1336 0 0 1 69 50q-4.199-1.099-8-4a3511 3511 0 0 0-64-45.5" style="opacity:1"/><path fill="#685923" d="M371.5 633.5a8.4 8.4 0 0 1 4 .5 77 77 0 0 1-7.5 3.5l-1.5-1a31.6 31.6 0 0 1 5-3" style="opacity:1"/><path fill="#dabb49" d="M541.5 661.5q-1.401-1.602-1-4 7.842-16.6 21-29.5 1.248-1.032 2 .5a283 283 0 0 1-22 33" style="opacity:1"/><path fill="#daba49" d="M648.5 658.5q.322 2.518-2 3a253 253 0 0 1-22-33.5q.525-1.886 2-1a126.6 126.6 0 0 1 22 31.5" style="opacity:1"/><path fill="#85722c" d="M812.5 645.5a5.73 5.73 0 0 1-1-3 2.43 2.43 0 0 0 2-.5 56 56 0 0 0-5.5-4.5l-1-7q-3.042 6.064-8 2a6.8 6.8 0 0 1-1.5 3q-6.961-12.948 4.5-4 2.8-4.071 7.5-5-.245 3.535.5 7 12.753 5.064-.5 2.5a36.4 36.4 0 0 1 9 8.5 9.86 9.86 0 0 1-6 1" style="opacity:1"/><path fill="#9e8835" d="M397.5 645.5q-2.975.514-4-2-5.618-11.557 3.5-1 .724 1.422.5 3" style="opacity:1"/><path fill="#978233" d="M800.5 646.5q.356 1.937-1 3 .255-1.983-1-3.5a32.5 32.5 0 0 0-8-.5q1.182-5.205 6-8l1 1-3 4q3.983.713 6 4" style="opacity:1"/><path fill="#7c6a29" d="M667.5 612.5q.09-.814 1-1a2486 2486 0 0 0 73 60.5q-2.112.473-4-1a1170 1170 0 0 1-70-58.5" style="opacity:1"/><path fill="#7f6d2a" d="M455.5 666.5q-1 0-1-1a227544 227544 0 0 0 65-54q-3.663 5.984-10 11.5a899 899 0 0 1-54 43.5" style="opacity:1"/><path fill="#5d4f1f" d="M811.5 642.5a5.73 5.73 0 0 0 1 3q-2.682-.428-5 1a79 79 0 0 1-6.5 10 17.8 17.8 0 0 1-1.5-7q1.356-1.063 1-3 1.203 2.178 1.5 5 2.669-6.924 9.5-9" style="opacity:1"/><path fill="#403716" d="M424.5 655.5q0 1 1 1-3.684 4.331-9 5.5a61.5 61.5 0 0 1 8-6.5" style="opacity:1"/><path fill="#9e8735" d="M540.5 657.5q-.401 2.398 1 4a191 191 0 0 1-9.5 14q-1.34 1.817-2.5 0a126 126 0 0 0 11-18" style="opacity:1"/><path fill="#968033" d="M648.5 658.5a235 235 0 0 1 9.5 18q-6.49-7.005-11.5-15 2.322-.482 2-3" style="opacity:1"/><path fill="#695a23" d="M791.5 662.5q5.145 2.406 7.5 7l-5.5-3.5q-1.984-1.224-2-3.5" style="opacity:1"/><path fill="#aa8708" d="M907.5 940.5v-254q1.24 7.726 1.5 16l1-35q1 141 0 282l-1-13q-.315 2.337-1.5 4" style="opacity:1"/><path fill="#806d2b" d="M494.5 702.5q-1 0-1-1a921 921 0 0 1 52-62.5q1-1 2 0a4678 4678 0 0 0-53 63.5" style="opacity:1"/><path fill="#4a3f18" d="M454.5 665.5q0 1 1 1a90 90 0 0 1-8.5 7q-1-1 0-2a66.5 66.5 0 0 0 7.5-6" style="opacity:1"/><path fill="#443b17" d="M386.5 682.5h-4v-14a32.3 32.3 0 0 0 6-4.5q1.248-1.032 2 .5a74 74 0 0 1-6.5 5 72.4 72.4 0 0 0-.5 12q1.937-.356 3 1" style="opacity:1"/><path fill="#8b772f" d="M819.5 682.5h-14a122 122 0 0 1 1-22 111 111 0 0 1 1 21q6.303-.475 12 1" style="opacity:1"/><path fill="#786628" d="M640.5 639.5q.595-1.538 2-.5a984 984 0 0 1 57.5 68.5q1.934 2.332 2 5a6720 6720 0 0 0-61.5-73" style="opacity:1"/><path fill="#806d2a" d="M598.5 652.5q.387 16.313-2 32 .018-16.289 2-32" style="opacity:1"/><path fill="#9d8735" d="M382.5 668.5v14h4l4 1q-3.672 1.46-8 1v9q-.09.814-1 1a25.9 25.9 0 0 1-1-10h-13v-3h13q-.495-10.548 1-21a16.9 16.9 0 0 1 1 8" style="opacity:1"/><path fill="#ab9239" d="M805.5 682.5h14q.814.09 1 1a43.1 43.1 0 0 1-13 1q-1 20-2 0-16-1 0-2" style="opacity:1"/><path fill="#9f800d" d="M924.5 152.5a98815 98815 0 0 1 0 889 1225 1225 0 0 0-1-70q.25-178.5-.5-357a11.3 11.3 0 0 1-3.5 1.5q2 2.76-.5 1.5a32204 32204 0 0 0 0 359q2.121-1.37 4.5 0 .25 11.011-.5 22-1.665-2.305-4.5-2-1.343 11.715-2 45v-888h1v367q-.25 45.003.5 90l1-46q5.895-2.204.5-3.5a11.3 11.3 0 0 0 3.5-1.5l1 50q.75-43.497.5-87z" style="opacity:1"/><path fill="#aa8709" d="M923.5 971.5v5q-2.379-1.37-4.5 0a32204 32204 0 0 1 0-359q2.5 1.26.5-1.5a11.3 11.3 0 0 0 3.5-1.5q.75 178.5.5 357" style="opacity:1"/><path fill="#c69f15" d="M924.5 522.5q.25 43.503-.5 87l-1-50a11.3 11.3 0 0 1-3.5 1.5q5.395 1.296-.5 3.5l-1 46q-.75-44.997-.5-90a284 284 0 0 0 1.5-24q1.665-2.305 4.5-2-.49 14.272 1 28" style="opacity:1"/><path fill="#d6ae1f" d="M917.5 153.5a189 189 0 0 0 5.5 21 197 197 0 0 1 1.5-20v368q-1.49-13.728-1-28-2.835-.305-4.5 2a284 284 0 0 1-1.5 24z" style="opacity:1"/><path fill="#aa880e" d="M911.5 176.5q2 420 0 840 .25-14.01-.5-28l-1 13q-.354-2.428-2.5-3v-58q1.185-1.663 1.5-4l1 13q1-141 0-282l-1 35q-.26-8.274-1.5-16v-160q1.935-.837 2.5-3l1 15q.75-181 .5-362" style="opacity:1"/><path fill="#8e792f" d="M751.5 688.5q.258-1.487-1-2 1.302-3.187 3-.5-.208 1.951-2 2.5" style="opacity:1"/><path fill="#3a3213" d="M390.5 683.5q.814.09 1 1a16.9 16.9 0 0 1-8 1q.46 4.328-1 8v-9q4.328.46 8-1" style="opacity:1"/><path fill="#665722" d="M615.5 648.5q.865-1.91 2 0a28 28 0 0 1 1.5 5 1679 1679 0 0 0 19 87 661 661 0 0 1-22.5-92" style="opacity:1"/><path fill="#a68e38" d="M443.5 681.5q.895.352 1 1.5a80 80 0 0 0-4 7.5q2.92 2.664 1 6-2.322-5.176-6-1l-1-1q3.887-4.344 0-8.5l1-1.5a15 15 0 0 1 3.5 3 41 41 0 0 1 4.5-6" style="opacity:1"/><path fill="#6e5e25" d="M625.5 657.5q21.862 35.205 40 73l-1 1a1966 1966 0 0 1-39-74" style="opacity:1"/><path fill="#8c782f" d="M590.5 660.5q2.324 22.207 2 45a633 633 0 0 1-2-45" style="opacity:1"/><path fill="#a38b37" d="M750.5 686.5q1.258.513 1 2 .13 3.265 2 6l-1 1q-3.678-4.176-6 1l-1-1.5 2-5a49.3 49.3 0 0 0-5-8q.525-1.886 2-1l4.5 6.5q.575-.834 1.5-1" style="opacity:1"/><path fill="#9c8635" d="M768.5 698.5q5.958 1.468 8 7-1.762.329-3-1-3.047-2.715-5-6" style="opacity:1"/><path fill="#b2983c" d="M412.5 698.5a2.43 2.43 0 0 1 2 .5 64 64 0 0 1-7 6.5q-1.624-1.298-.5-3a35.5 35.5 0 0 0 5.5-4" style="opacity:1"/><path fill="#6d5d24" d="M561.5 657.5a2.43 2.43 0 0 1 2 .5 8102 8102 0 0 0-40.5 74.5q3.667-11.858 10-23a1971 1971 0 0 0 28.5-52" style="opacity:1"/><path fill="#625421" d="M570.5 647.5q.979 1.423 1 3.5a564.4 564.4 0 0 1-21.5 89.5 58.5 58.5 0 0 1 1-10 696 696 0 0 0 19.5-83" style="opacity:1"/><path fill="#4a3f19" d="M493.5 701.5q0 1 1 1a2202 2202 0 0 0-8 10q-1.532-.752-.5-2 3.546-4.785 7.5-9" style="opacity:1"/><path fill="#e0b933" d="M282.5 718.5a15118 15118 0 0 0-4 74v-145q1.25-78.747 1.5-158l1 21 1-26q.75 116.999.5 234" style="opacity:1"/><path fill="#766527" d="M685.5 732.5q0 1-1 1a1572 1572 0 0 1-44-62q1.16-1.817 2.5 0a104882 104882 0 0 0 42.5 61" style="opacity:1"/><path fill="#6d5d25" d="M545.5 670.5q2.292.026 1.5 2a1318 1318 0 0 1-49 69q-1.077 1.426-2.5.5a1722 1722 0 0 0 50-71.5" style="opacity:1"/><path fill="#a58d37" d="M710.5 713.5q4.484 1.97 9 4 8.436-2.922 3 2.5 3.173 1.756 2 4.5a19 19 0 0 1-5-3q-2.202 2.75-5 1a7.25 7.25 0 0 1 2-2.5q-3.599-2.97-6-6.5" style="opacity:1"/><path fill="#a68e38" d="M475.5 713.5q2.292.026 1.5 2a17.8 17.8 0 0 0-5.5 4.5q3.089 1.778.5 3.5a11.1 11.1 0 0 1-3.5-2q-2.724 2.912-6 2a15 15 0 0 1 3-3.5l-3-3q3.254-.643 6 1.5a38.3 38.3 0 0 0 7-5" style="opacity:1"/><path fill="#85722d" d="M424.5 729.5a8.4 8.4 0 0 0-4 .5 19.6 19.6 0 0 1-4 3.5q1.83-6.898 8-4" style="opacity:1"/><path fill="#e8c64e" d="M424.5 729.5q5.333 2.38 3.5 8a3780 3780 0 0 1-55.5 49 2.43 2.43 0 0 1-2-.5q1.129-1.006 1-2.5a167707 167707 0 0 0 45-50 19.6 19.6 0 0 0 4-3.5 8.4 8.4 0 0 1 4-.5" style="opacity:1"/><path fill="#e9c84e" d="M809.5 777.5q.305 2.317 2 4-1.8 1.188-4 0a596 596 0 0 1-30-28q-1.627-3.13-5-4a228 228 0 0 0-13.5-12q-1.986-10.507 8.5-7.5a2911 2911 0 0 0 42 47.5" style="opacity:1"/><path fill="#473d18" d="M685.5 732.5a49 49 0 0 1 7 9.5q-1.423.926-2.5-.5a51 51 0 0 0-5.5-8q1 0 1-1" style="opacity:1"/><path fill="#7f6d2b" d="m561.5 744.5-4-2q4.54-1.514 9 0a11.64 11.64 0 0 1-5 2" style="opacity:1"/><path fill="#766528" d="m630.5 742.5-4 2q-3.248.576-5-2 4.46-1.514 9 0" style="opacity:1"/><path fill="#a78f38" d="m557.5 742.5 4 2q-2.425 1.634-2.5 5-1.38-2.721-4.5-3-3.613 1.305-7 0 3.22-3.245 8-3-.329-1.762 1-3 1.197.686 1 2" style="opacity:1"/><path fill="#9a8434" d="m626.5 744.5 4-2q-.197-1.314 1-2 1.329 1.238 1 3 4.78-.245 8 3a28.3 28.3 0 0 1-9 .5q-4.167 7.155-3-.5-.533-1.533-2-2" style="opacity:1"/><path fill="#978133" d="M772.5 749.5q3.373.87 5 4-3.373-.87-5-4" style="opacity:1"/><path fill="#b79d3e" d="M462.5 749.5q.814.09 1 1a19 19 0 0 0-3 5q-1.237 1.329-3 1 1.803-3.834 5-7" style="opacity:1"/><path fill="#ab923a" d="M718.5 748.5a38.5 38.5 0 0 1 5.5 5q1.124 1.702-.5 3-3.716-3.22-5-8" style="opacity:1"/><path fill="#a48c37" d="M672.5 761.5q2.322.482 2 3-1.937-.356-3 1a514 514 0 0 0-4 3l-1-1a25.7 25.7 0 0 1 6-6" style="opacity:1"/><path fill="#655722" d="M517.5 783.5h-4a12.9 12.9 0 0 0-.5-5 67 67 0 0 1-11.5-7 38.2 38.2 0 0 1 11-2v-9q5.72 1.695 9 7l-1 1-4-3a61 61 0 0 1-3 5.5q-3.322.255-6 2a85 85 0 0 0 7.5 4.5q.36 3.528 2.5 6" style="opacity:1"/><path fill="#8c782f" d="M513.5 783.5h4q3.606-6.198 11-6-6.304-2.882-2-8l-3-2q12.189-4.623 3 5a19.8 19.8 0 0 0 5.5 5q.724 1.422.5 3a31.1 31.1 0 0 0-11 1q-3 4-7 7-1.428-2.318-1-5" style="opacity:1"/><path fill="#8b772f" d="M670.5 783.5h4q.428 2.682-1 5-4-3-7-7a31.1 31.1 0 0 0-11-1 4.93 4.93 0 0 1 .5-3 71 71 0 0 1 5.5-5q-9.064-10.02 3-4.5a6.8 6.8 0 0 0-3 1.5l3 4a32 32 0 0 0-5 4.5q7.494-.93 11 5.5" style="opacity:1"/><path fill="#5c4f1f" d="M672.5 761.5q1.063-1.356 3-1v9q5.592.442 11 2a45.5 45.5 0 0 1-11 6.5q-1.359 2.549-1 5.5h-4q2.14-2.472 2.5-6a85 85 0 0 0 7.5-4.5 20.6 20.6 0 0 0-6-2 87 87 0 0 1-3-5.5q1.063-1.356 3-1 .322-2.518-2-3" style="opacity:1"/><path fill="#776628" d="M723.5 776.5h-33q10.22-1.487 21-1-.594-4.473 2-8a16.9 16.9 0 0 1 1 8q4.82-.465 9 1" style="opacity:1"/><path fill="#a68e38" d="M496.5 777.5q-10.281-.486-20 1 2.372 6.772-1 13-1-6.724-2-13-4.207-1.228-9-1.5 4.793-.272 9-1.5a16.9 16.9 0 0 1 1-8q2.655 4.04 2 9 9.513.25 19-.5l1.5-1.5q1.11 1.874-.5 3" style="opacity:1"/><path fill="#b59b3d" d="M690.5 776.5h33l-9 2q-1 6.276-2 13a43.1 43.1 0 0 1-1-13z" style="opacity:1"/><path fill="#4d421a" d="M473.5 775.5q-4.207 1.228-9 1.5 4.793.272 9 1.5h-10v-3z" style="opacity:1"/><path fill="#4f431a" d="M476.5 778.5q9.719-1.486 20-1-.967 1.968-3 3-1.794-.519 0-1.5a145 145 0 0 0-17-.5" style="opacity:1"/><path fill="#4f441a" d="m690.5 776.5 21 2a122 122 0 0 1-22-1q.186-.91 1-1" style="opacity:1"/><path fill="#4a4019" d="M723.5 776.5q.814.09 1 1a25.9 25.9 0 0 1-10 1z" style="opacity:1"/><path fill="#eac84e" d="M590.5 783.5q2.951-.359 5.5 1 .749 6.481.5 13a144.5 144.5 0 0 1-1 22 124 124 0 0 1-2.5 14 40.8 40.8 0 0 1-1.5-14 285 285 0 0 0-2-24q-.475-6.303 1-12" style="opacity:1"/><path fill="#a99039" d="M809.5 777.5q4.575 3.074 7 8a2.43 2.43 0 0 1-.5 2q-1.224-1.984-3.5-2a21.6 21.6 0 0 1-5-4q2.2 1.188 4 0-1.695-1.683-2-4" style="opacity:1"/><path fill="#746327" d="M371.5 783.5q.129 1.494-1 2.5a2.43 2.43 0 0 0 2 .5q-1.856 4.45-6 3a325 325 0 0 1 5-6" style="opacity:1"/><path fill="#86732d" d="M596.5 797.5a85 85 0 0 0-.5-13q-2.549-1.359-5.5-1 3.06-3.951 6.5 0 1.222 7.278-.5 14" style="opacity:1"/><path fill="#6d5e24" d="M812.5 785.5q2.276.016 3.5 2a2.43 2.43 0 0 0 .5-2q3.985 1.469 2 5-3.662-1.814-6-5" style="opacity:1"/><path fill="#675923" d="M652.5 787.5q3.943 2.84 5 8l-1 1a54 54 0 0 1-4-9" style="opacity:1"/><path fill="#736227" d="M528.5 787.5q1.314-.197 2 1-8.168 16.011-2-1" style="opacity:1"/><path fill="#fcd359" d="M941.5 810.5v-3q8.338-5.84 10 5a4.93 4.93 0 0 1-3-.5q-2.322-6.159-7-1.5" style="opacity:.118"/><path fill="#fbd553" d="M248.5 808.5v3l-6-3q-2.017 1.27-3 3.5a4.93 4.93 0 0 1-3 .5q2.84-12.44 12-4" style="opacity:.235"/><path fill="#d2b446" d="M552.5 811.5q3.876.822 3 5a9.86 9.86 0 0 1 6 1q-1.752 2.576-5 2 .428 2.682-1 5-2.417-1.23-2-4a16.9 16.9 0 0 1-8-1q2.284-2.674 6-2-.262-3.181 1-6m81 0q1.494-.128 2.5 1a12.9 12.9 0 0 1 .5 5q3.716-.674 6 2-5.937.528-9.5 5-1.904-2.107-1.5-5-3.248.576-5-2a9.86 9.86 0 0 1 6-1q-.201-2.687 1-5" style="opacity:1"/><path fill="#7c6a29" d="M589.5 795.5a285 285 0 0 1 2 24h-1a217 217 0 0 1-1-24" style="opacity:1"/><path fill="#766528" d="M590.5 819.5h1a40.8 40.8 0 0 0 1.5 14 124 124 0 0 0 2.5-14 113 113 0 0 1-.5 15 7.3 7.3 0 0 1-2 3q-3.226-8.7-2.5-18" style="opacity:1"/><path fill="#e2c04b" d="M282.5 718.5q-.485 9.285 1 18-.25 143 .5 286 7.925 30.42 38.5 37.5c181.666.5 363.333.67 545 .5 2.928.07 5.595.73 8 2-2.703 1.46-5.703 2.3-9 2.5q-274 1.005-548 0c-18.219-5.88-31.052-17.72-38.5-35.5l-1-8q-.75-114.5-.5-229 1.91-37.004 4-74" style="opacity:1"/><path fill="#e9c750" d="M273.5 657.5q-.5 194.751 1 389 5.209 16.86 20 27 2.889 2.685 7 3c1.765.96 3.765 1.29 6 1 69.325 2 138.992 2.66 209 2 26.982 1.83 54.315 2.66 82 2.5.837 1.01 1.17 2.18 1 3.5-98.501-.33-196.835 0-295 1-21.166-5.33-33.999-18.67-38.5-40q-.75-181.5-.5-363h1q-.25 26.005.5 52 .253-9.539 1.5-19l2 1q1.505-30.237 3-60" style="opacity:1"/><path fill="#a58d38" d="M598.5 949.5a83 83 0 0 0-14 1q3.46-2.32 8-2 3.294.007 6 1" style="opacity:1"/><path fill="#f2cf51" d="M646.5 947.5q29.14-.618 26.5 28-7.719 19.584-28.5 15.5-3.032-.602-4-3.5 20.887-17.888 2-38a71 71 0 0 0 4-2" style="opacity:1"/><path fill="#ebc94f" d="M709.5 947.5q14.442-.43 21.5 13 5.266 21.157-14.5 29.5-6 1-12 0 19.824-5.83 18.5-26.5-2.685-11.435-13.5-16" style="opacity:1"/><path fill="#f2cf51" d="M529.5 948.5a61 61 0 0 1 11 .5 6.8 6.8 0 0 1 3 1.5q-17.945 21.836 5 38.5-23.479 11.51-33.5-12.5-3.59-19.65 14.5-28" style="opacity:1"/><path fill="#f6d352" d="M598.5 949.5q26.923 9.495 12.5 35-13.718 13.077-30.5 4.5-12.545-11.927-7.5-28.5 4.183-6.941 11.5-10a83 83 0 0 1 14-1" style="opacity:1"/><path fill="#ebc94f" d="M476.5 988.5a48.3 48.3 0 0 0 10 3q-34.074 7.193-31.5-28 4.8-10.337 15.5-12.5-11.097 7.857-8.5 21.5 1.966 6.936 7 12 3.237 2.991 7.5 4" style="opacity:1"/><path fill="#d1b346" d="M884.5 958.5q10.48-.254 5 8.5-10.626.713-5-8.5" style="opacity:1"/><path fill="#d7b748" d="M301.5 958.5q10.48-.254 5 8.5-10.626.713-5-8.5" style="opacity:1"/><path fill="#ac933a" d="M891.5 981.5a34.2 34.2 0 0 0-10 1q2.097-3.05 6-3 2.782-.24 4 2" style="opacity:1"/><path fill="#e3c34c" d="M308.5 996.5a29.2 29.2 0 0 1-9 1q-10.528-6.94-2-16.5 8.169-3.927 13.5 3.5 1.668 6.722-2.5 12" style="opacity:1"/><path fill="#e6c44d" d="M891.5 981.5q5.375 1.384 5 7 .347 6.822-6 9a25 25 0 0 1-8-1q-7.141-6.752-1-14a34.2 34.2 0 0 1 10-1" style="opacity:1"/><path fill="#7f6c2b" d="M476.5 988.5q5.592.442 11 2-.186.91-1 1a48.3 48.3 0 0 1-10-3" style="opacity:1"/><path fill="#4f441c" d="M308.5 996.5q-.166.925-1 1.5-4.3 1.201-8-.5a29.2 29.2 0 0 0 9-1" style="opacity:1"/><path fill="#726126" d="M882.5 996.5a25 25 0 0 0 8 1q-1.423.979-3.5 1-3.012.29-4.5-2" style="opacity:1"/><path fill="#ebc84c" d="M898.5 1012.5v10a24.2 24.2 0 0 1-3 5.5q-21.868 5.625-17.5-16.5 5.014-7.08 13.5-4.5c3.095.94 5.429 2.77 7 5.5" style="opacity:1"/><path fill="#e8c64e" d="M297.5 1006.5q16.828-1.41 16.5 15-5.058 10.395-16.5 7.5-13.925-11.37 0-22.5" style="opacity:1"/><path fill="#b1973b" d="M898.5 1012.5c2.667 3.33 2.667 6.67 0 10z" style="opacity:1"/><path fill="#fad754" d="M327.5 1045.5h535v4c-178 .17-356 0-534-.5-.837-1.01-1.17-2.18-1-3.5" style="opacity:1"/><path fill="#7f6920" d="M915.5 1041.5h1q.427 4.995-2 9 .694-4.47 1-9" style="opacity:1"/><path fill="#cdab34" d="M911.5 1016.5c-1.767 20.05-11.434 34.88-29 44.5a53 53 0 0 1-7 1.5c-2.405-1.27-5.072-1.93-8-2 23.118-5.12 36.118-19.45 39-43 .99-6.14 1.323-12.48 1-19q2.146.572 2.5 3l1-13q.75 13.99.5 28" style="opacity:1"/><path fill="#d3b139" d="M923.5 971.5a1225 1225 0 0 1 1 70q-4.03 36.03-39 45-1.663-1.185-4-1.5c10.314-1.22 10.314-3.06 0-5.5v-1c1.068-.93 2.401-1.27 4-1q4.724.12 8-3 14.715-8.22 21-24 2.427-4.005 2-9 .657-33.285 2-45 2.835-.305 4.5 2 .75-10.989.5-22z" style="opacity:1"/><path fill="#4b411b" d="M294.5 1073.5q4.111.315 7 3-4.111-.315-7-3" style="opacity:1"/><path fill="#524619" d="M893.5 1074.5q-3.276 3.12-8 3 3.585-2.28 8-3" style="opacity:1"/><path fill="#716025" d="M307.5 1077.5c191.264 1 382.597 1.33 574 1v1h-365c-70.008.66-139.675 0-209-2" style="opacity:1"/><path fill="#e8c54b" d="M516.5 1079.5h365c10.314 2.44 10.314 4.28 0 5.5q2.337.315 4 1.5a42301 42301 0 0 1-581 0c98.165-1 196.499-1.33 295-1 .17-1.32-.163-2.49-1-3.5-27.685.16-55.018-.67-82-2.5" style="opacity:1"/></svg>