<?xml version="1.0" encoding="UTF-8"?>
<!DOCTYPE svg PUBLIC "-//W3C//DTD SVG 1.1//EN" "http://www.w3.org/Graphics/SVG/1.1/DTD/svg11.dtd">
<svg xmlns="http://www.w3.org/2000/svg" version="1.1" width="1200px" height="1200px" style="shape-rendering:geometricPrecision; text-rendering:geometricPrecision; image-rendering:optimizeQuality; fill-rule:evenodd; clip-rule:evenodd" xmlns:xlink="http://www.w3.org/1999/xlink">
<g><path style="opacity:0.997" fill="#090806" d="M 941.5,319.5 C 941.5,320.167 941.5,320.833 941.5,321.5C 941.5,483.5 941.5,645.5 941.5,807.5C 941.5,808.5 941.5,809.5 941.5,810.5C 941.667,899.167 941.5,987.834 941,1076.5C 938.447,1097.05 927.281,1110.21 907.5,1116C 698.833,1116.67 490.167,1116.67 281.5,1116C 264.458,1110.79 253.458,1099.96 248.5,1083.5C 248.506,993.011 248.506,902.344 248.5,811.5C 248.5,810.5 248.5,809.5 248.5,808.5C 248.5,645.833 248.5,483.167 248.5,320.5C 248.5,319.5 248.5,318.5 248.5,317.5C 248.508,248.322 248.508,179.322 248.5,110.5C 254.734,92.7681 267.068,81.9348 285.5,78C 491.5,77.3333 697.5,77.3333 903.5,78C 922.97,81.8688 935.137,93.0355 940,111.5C 941.477,180.806 941.977,250.139 941.5,319.5 Z"/></g>
<g><path style="opacity:1" fill="#d4af2c" d="M 307.5,107.5 C 330.5,107.5 353.5,107.5 376.5,107.5C 384.684,108.223 393.017,108.89 401.5,109.5C 403.784,110.613 406.117,111.613 408.5,112.5C 405.694,113.168 403.028,113.834 400.5,114.5C 368.429,113.878 336.429,114.545 304.5,116.5C 303.639,115.408 301.972,114.575 299.5,114C 300.833,113.667 302.167,113.333 303.5,113C 302.289,111.887 302.289,110.72 303.5,109.5C 304.949,108.828 306.282,108.161 307.5,107.5 Z"/></g>
<g><path style="opacity:1" fill="#eccd62" d="M 471.5,107.5 C 539.17,107.167 606.837,107.5 674.5,108.5C 666.248,111.843 666.581,113.677 675.5,114C 609.501,114.5 543.501,114.667 477.5,114.5C 473.979,113.834 470.313,113.167 466.5,112.5C 466.709,111.914 467.043,111.414 467.5,111C 466.328,110.581 465.328,109.915 464.5,109C 467.036,108.814 469.369,108.314 471.5,107.5 Z"/></g>
<g><path style="opacity:1" fill="#caaa34" d="M 725.5,108.5 C 758.168,108.333 790.835,108.5 823.5,109C 826.224,109.27 828.891,109.77 831.5,110.5C 834.244,109.523 836.577,110.19 838.5,112.5C 800.506,113.5 762.506,113.833 724.5,113.5C 722.473,113.662 720.473,113.495 718.5,113C 720.76,111.212 723.093,109.712 725.5,108.5 Z"/></g>
<g><path style="opacity:1" fill="#e2be41" d="M 376.5,107.5 C 408.167,107.5 439.833,107.5 471.5,107.5C 469.369,108.314 467.036,108.814 464.5,109C 465.328,109.915 466.328,110.581 467.5,111C 467.043,111.414 466.709,111.914 466.5,112.5C 470.313,113.167 473.979,113.834 477.5,114.5C 452.833,114.5 428.167,114.5 403.5,114.5C 402.5,114.5 401.5,114.5 400.5,114.5C 403.028,113.834 405.694,113.168 408.5,112.5C 406.117,111.613 403.784,110.613 401.5,109.5C 393.017,108.89 384.684,108.223 376.5,107.5 Z"/></g>
<g><path style="opacity:1" fill="#cca829" d="M 881.5,107.5 C 900.453,110.725 913.953,121.058 922,138.5C 923.542,143.045 924.376,147.711 924.5,152.5C 924.5,153.167 924.5,153.833 924.5,154.5C 923.672,160.987 923.172,167.654 923,174.5C 920.731,167.48 918.897,160.48 917.5,153.5C 917.167,153.5 916.833,153.5 916.5,153.5C 915.833,151.5 915.167,149.5 914.5,147.5C 913.488,140.142 910.321,133.808 905,128.5C 900.055,124.377 894.888,120.71 889.5,117.5C 887.302,116.835 884.969,116.168 882.5,115.5C 829.838,114.5 777.171,114.167 724.5,114.5C 724.5,114.167 724.5,113.833 724.5,113.5C 762.506,113.833 800.506,113.5 838.5,112.5C 836.577,110.19 834.244,109.523 831.5,110.5C 828.891,109.77 826.224,109.27 823.5,109C 790.835,108.5 758.168,108.333 725.5,108.5C 774.81,107.499 826.81,107.166 881.5,107.5 Z"/></g>
<g><path style="opacity:1" fill="#b09841" d="M 307.5,107.5 C 498.833,106.167 690.167,106.167 881.5,107.5C 826.81,107.166 774.81,107.499 725.5,108.5C 723.093,109.712 720.76,111.212 718.5,113C 720.473,113.495 722.473,113.662 724.5,113.5C 724.5,113.833 724.5,114.167 724.5,114.5C 717.646,114.176 710.979,114.509 704.5,115.5C 604.167,115.5 503.833,115.5 403.5,115.5C 403.5,115.167 403.5,114.833 403.5,114.5C 428.167,114.5 452.833,114.5 477.5,114.5C 543.501,114.667 609.501,114.5 675.5,114C 666.581,113.677 666.248,111.843 674.5,108.5C 606.837,107.5 539.17,107.167 471.5,107.5C 439.833,107.5 408.167,107.5 376.5,107.5C 353.5,107.5 330.5,107.5 307.5,107.5 Z"/></g>
<g><path style="opacity:1" fill="#b89a2c" d="M 704.5,115.5 C 710.979,114.509 717.646,114.176 724.5,114.5C 777.171,114.167 829.838,114.5 882.5,115.5C 884.969,116.168 887.302,116.835 889.5,117.5C 827.883,115.561 766.216,114.894 704.5,115.5 Z"/></g>
<g><path style="opacity:1" fill="#0a0702" d="M 403.5,115.5 C 503.833,115.5 604.167,115.5 704.5,115.5C 766.216,114.894 827.883,115.561 889.5,117.5C 894.888,120.71 900.055,124.377 905,128.5C 910.321,133.808 913.488,140.142 914.5,147.5C 915.495,445.488 915.828,743.488 915.5,1041.5C 915.296,1044.52 914.963,1047.52 914.5,1050.5C 910.31,1061.02 903.31,1069.02 893.5,1074.5C 890.557,1074.98 887.89,1075.98 885.5,1077.5C 883.901,1077.23 882.568,1077.57 881.5,1078.5C 690.097,1078.83 498.764,1078.5 307.5,1077.5C 305.265,1077.79 303.265,1077.46 301.5,1076.5C 299.574,1074.71 297.241,1073.71 294.5,1073.5C 284.639,1066.74 277.973,1057.74 274.5,1046.5C 274.5,747.167 274.5,447.833 274.5,148.5C 279.057,130.61 290.39,119.943 308.5,116.5C 340.16,115.5 371.826,115.167 403.5,115.5 Z"/></g>
<g><path style="opacity:1" fill="#ba9617" d="M 307.5,107.5 C 306.282,108.161 304.949,108.828 303.5,109.5C 302.289,110.72 302.289,111.887 303.5,113C 302.167,113.333 300.833,113.667 299.5,114C 301.972,114.575 303.639,115.408 304.5,116.5C 336.429,114.545 368.429,113.878 400.5,114.5C 401.5,114.5 402.5,114.5 403.5,114.5C 403.5,114.833 403.5,115.167 403.5,115.5C 371.826,115.167 340.16,115.5 308.5,116.5C 290.39,119.943 279.057,130.61 274.5,148.5C 273.669,163.995 273.169,179.661 273,195.5C 272.739,187.13 272.072,178.797 271,170.5C 269.989,171.337 268.822,171.67 267.5,171.5C 267.666,178.841 267.5,186.174 267,193.5C 266.5,178.17 266.333,162.837 266.5,147.5C 269.965,129.517 280.299,117.017 297.5,110C 300.618,108.273 303.951,107.439 307.5,107.5 Z"/></g>
<g><path style="opacity:1" fill="#d2ad2b" d="M 397.5,129.5 C 404.648,130.492 411.981,130.825 419.5,130.5C 419.5,131.5 419.5,132.5 419.5,133.5C 386.996,133.168 354.662,133.502 322.5,134.5C 320.379,134.325 318.379,134.659 316.5,135.5C 314.914,134.852 313.247,134.352 311.5,134C 312.942,133.623 313.942,132.79 314.5,131.5C 315.263,130.732 316.263,130.232 317.5,130C 344.165,129.5 370.831,129.333 397.5,129.5 Z"/></g>
<g><path style="opacity:1" fill="#e6c348" d="M 397.5,129.5 C 427.833,129.5 458.167,129.5 488.5,129.5C 488.918,130.222 489.584,130.722 490.5,131C 490.167,131.333 489.833,131.667 489.5,132C 479.991,132.17 470.658,132.67 461.5,133.5C 447.5,133.5 433.5,133.5 419.5,133.5C 419.5,132.5 419.5,131.5 419.5,130.5C 411.981,130.825 404.648,130.492 397.5,129.5 Z"/></g>
<g><path style="opacity:1" fill="#eed061" d="M 488.5,129.5 C 558.167,129.5 627.833,129.5 697.5,129.5C 693.979,130.166 690.313,130.833 686.5,131.5C 691.802,132.329 697.136,132.829 702.5,133C 622.167,133.5 541.834,133.667 461.5,133.5C 470.658,132.67 479.991,132.17 489.5,132C 489.833,131.667 490.167,131.333 490.5,131C 489.584,130.722 488.918,130.222 488.5,129.5 Z"/></g>
<g><path style="opacity:1" fill="#020100" d="M 322.5,134.5 C 505.5,134.333 688.5,134.5 871.5,135C 887.898,140.069 899.065,150.569 905,166.5C 905.333,169.833 905.667,173.167 906,176.5C 906.5,456.833 906.667,737.166 906.5,1017.5C 903.618,1041.05 890.618,1055.38 867.5,1060.5C 685.833,1060.67 504.166,1060.5 322.5,1060C 302.117,1055.28 289.283,1042.78 284,1022.5C 283.5,927.167 283.333,831.834 283.5,736.5C 283.5,650.5 283.5,564.5 283.5,478.5C 283.333,376.166 283.5,273.833 284,171.5C 285.272,165.431 287.605,159.764 291,154.5C 294.833,150.667 298.667,146.833 302.5,143C 307.101,140.202 311.768,137.702 316.5,135.5C 318.379,134.659 320.379,134.325 322.5,134.5 Z"/></g>
<g><path style="opacity:1" fill="#987d1e" d="M 697.5,129.5 C 756.871,129.019 816.204,129.519 875.5,131C 896.122,138.448 908.122,152.948 911.5,174.5C 910.842,173.602 910.176,172.602 909.5,171.5C 908.702,173.078 908.202,174.744 908,176.5C 907.5,293.166 907.333,409.833 907.5,526.5C 907.5,579.833 907.5,633.167 907.5,686.5C 907.5,771.167 907.5,855.833 907.5,940.5C 907.5,959.833 907.5,979.167 907.5,998.5C 907.823,1005.02 907.49,1011.36 906.5,1017.5C 906.667,737.166 906.5,456.833 906,176.5C 905.667,173.167 905.333,169.833 905,166.5C 899.065,150.569 887.898,140.069 871.5,135C 688.5,134.5 505.5,134.333 322.5,134.5C 354.662,133.502 386.996,133.168 419.5,133.5C 433.5,133.5 447.5,133.5 461.5,133.5C 541.834,133.667 622.167,133.5 702.5,133C 697.136,132.829 691.802,132.329 686.5,131.5C 690.313,130.833 693.979,130.166 697.5,129.5 Z"/></g>
<g><path style="opacity:1" fill="#e7c74e" d="M 861.5,145.5 C 861.5,146.5 861.5,147.5 861.5,148.5C 683.833,148.5 506.167,148.5 328.5,148.5C 327.209,147.458 327.209,146.292 328.5,145C 506.334,144.167 684,144.334 861.5,145.5 Z"/></g>
<g><path style="opacity:1" fill="#e0c24c" d="M 861.5,145.5 C 862.434,146.568 862.768,147.901 862.5,149.5C 684.333,149.833 506.333,149.5 328.5,148.5C 506.167,148.5 683.833,148.5 861.5,148.5C 861.5,147.5 861.5,146.5 861.5,145.5 Z"/></g>
<g><path style="opacity:1" fill="#f2cf51" d="M 645.5,162.5 C 658.225,160.749 667.725,165.416 674,176.5C 676.274,197.891 666.774,207.725 645.5,206C 643.445,205.313 641.779,204.146 640.5,202.5C 650.03,196.434 653.863,187.767 652,176.5C 649.904,171.973 647.071,167.973 643.5,164.5C 644.243,163.818 644.909,163.151 645.5,162.5 Z"/></g>
<g><path style="opacity:1" fill="#eac84e" d="M 710.5,162.5 C 723.262,162.246 730.595,168.58 732.5,181.5C 731.682,198.821 722.682,206.654 705.5,205C 722.665,198.827 727.832,187.327 721,170.5C 717.74,167.46 714.24,164.794 710.5,162.5 Z"/></g>
<g><path style="opacity:1" fill="#f2cf51" d="M 529.5,163.5 C 533.514,163.334 537.514,163.501 541.5,164C 542.624,164.249 543.624,164.749 544.5,165.5C 536.206,173.538 534.373,182.871 539,193.5C 541.69,197.69 545.19,201.024 549.5,203.5C 536.935,210.4 526.435,208.067 518,196.5C 514.761,188.78 514.761,181.113 518,173.5C 521.435,169.555 525.268,166.222 529.5,163.5 Z"/></g>
<g><path style="opacity:1" fill="#f5d252" d="M 586.5,163.5 C 599.488,161.578 609.322,166.245 616,177.5C 617.444,201.346 606.611,210.513 583.5,205C 574.16,198.189 570.66,189.022 573,177.5C 576.359,171.643 580.859,166.976 586.5,163.5 Z"/></g>
<g><path style="opacity:1" fill="#85712c" d="M 891.5,165.5 C 888.43,165.368 885.43,165.701 882.5,166.5C 882.611,165.883 882.944,165.383 883.5,165C 886.367,164.199 889.034,164.366 891.5,165.5 Z"/></g>
<g><path style="opacity:1" fill="#e7c64d" d="M 298.5,164.5 C 311.99,164.788 316.49,171.122 312,183.5C 303.268,191.158 296.268,189.824 291,179.5C 290.333,177.167 290.333,174.833 291,172.5C 293.028,169.308 295.528,166.641 298.5,164.5 Z"/></g>
<g><path style="opacity:1" fill="#efcc50" d="M 891.5,165.5 C 893.565,165.953 895.232,166.953 896.5,168.5C 898.252,172.227 898.919,176.227 898.5,180.5C 898.141,183.237 896.807,185.237 894.5,186.5C 891.236,187.324 887.902,187.658 884.5,187.5C 880.764,186.095 878.431,183.429 877.5,179.5C 877.337,177.143 877.503,174.81 878,172.5C 879.946,170.815 881.446,168.815 882.5,166.5C 885.43,165.701 888.43,165.368 891.5,165.5 Z"/></g>
<g><path style="opacity:1" fill="#ebc94f" d="M 482.5,207.5 C 477.797,207.563 473.13,207.229 468.5,206.5C 459.745,202.179 455.412,195.013 455.5,185C 456.397,175.084 461.564,168.25 471,164.5C 471.5,164.667 472,164.833 472.5,165C 464.293,170.291 461.126,177.791 463,187.5C 467.163,199.665 475.663,205.498 488.5,205C 486.713,206.319 484.713,207.152 482.5,207.5 Z"/></g>
<g><path style="opacity:1" fill="#b59b3d" d="M 882.5,166.5 C 881.446,168.815 879.946,170.815 878,172.5C 877.503,174.81 877.337,177.143 877.5,179.5C 875.112,173.61 876.778,169.277 882.5,166.5 Z"/></g>
<g><path style="opacity:1" fill="#ae943a" d="M 896.5,168.5 C 900.171,171.249 901.337,174.916 900,179.5C 899.617,180.056 899.117,180.389 898.5,180.5C 898.919,176.227 898.252,172.227 896.5,168.5 Z"/></g>
<g><path style="opacity:1" fill="#4d421c" d="M 894.5,186.5 C 894.389,187.117 894.056,187.617 893.5,188C 890.304,188.805 887.304,188.638 884.5,187.5C 887.902,187.658 891.236,187.324 894.5,186.5 Z"/></g>
<g><path style="opacity:1" fill="#e9c74c" d="M 304.5,196.5 C 306.062,196.733 307.395,197.4 308.5,198.5C 310.22,201.889 310.887,205.556 310.5,209.5C 309.969,211.624 308.635,213.124 306.5,214C 303.833,214.667 301.167,214.667 298.5,214C 297.944,213.617 297.611,213.117 297.5,212.5C 296.098,208.099 296.265,203.765 298,199.5C 299.843,197.829 302.009,196.829 304.5,196.5 Z"/></g>
<g><path style="opacity:1" fill="#dfbf4b" d="M 883.5,196.5 C 893.34,195.776 897.507,200.109 896,209.5C 893.103,214.155 888.937,215.655 883.5,214C 876.864,208.091 876.864,202.258 883.5,196.5 Z"/></g>
<g><path style="opacity:1" fill="#9e7f14" d="M 266.5,147.5 C 266.333,162.837 266.5,178.17 267,193.5C 267.5,186.174 267.666,178.841 267.5,171.5C 268.822,171.67 269.989,171.337 271,170.5C 272.072,178.797 272.739,187.13 273,195.5C 273.169,179.661 273.669,163.995 274.5,148.5C 274.5,447.833 274.5,747.167 274.5,1046.5C 273.5,917.001 273.167,787.334 273.5,657.5C 273.5,603.833 273.5,550.167 273.5,496.5C 273.5,470.5 273.5,444.5 273.5,418.5C 273.667,401.163 273.5,383.83 273,366.5C 272.699,376.194 272.032,385.861 271,395.5C 270,396.833 269,396.833 268,395.5C 267.667,387.167 267.333,378.833 267,370.5C 266.829,377.679 266.329,384.679 265.5,391.5C 265.167,309.998 265.501,228.665 266.5,147.5 Z"/></g>
<g><path style="opacity:1" fill="#c2a640" d="M 304.5,196.5 C 302.009,196.829 299.843,197.829 298,199.5C 296.265,203.765 296.098,208.099 297.5,212.5C 290.895,204.386 292.728,198.719 303,195.5C 303.765,195.57 304.265,195.903 304.5,196.5 Z"/></g>
<g><path style="opacity:1" fill="#b0963a" d="M 308.5,198.5 C 312.078,200.902 313.245,204.235 312,208.5C 311.617,209.056 311.117,209.389 310.5,209.5C 310.887,205.556 310.22,201.889 308.5,198.5 Z"/></g>
<g><path style="opacity:1" fill="#9c8634" d="M 468.5,206.5 C 473.13,207.229 477.797,207.563 482.5,207.5C 480.866,208.161 479.033,208.494 477,208.5C 473.85,208.64 471.017,207.973 468.5,206.5 Z"/></g>
<g><path style="opacity:1" fill="#daba49" d="M 300.5,227.5 C 307.716,226.688 309.716,229.355 306.5,235.5C 299.794,236.772 297.794,234.105 300.5,227.5 Z"/></g>
<g><path style="opacity:1" fill="#d7b848" d="M 883.5,227.5 C 890.716,226.688 892.716,229.355 889.5,235.5C 882.794,236.772 880.794,234.105 883.5,227.5 Z"/></g>
<g><path style="opacity:1" fill="#3f3615" d="M 594.5,292.5 C 593.883,292.389 593.383,292.056 593,291.5C 592.722,292.416 592.222,293.082 591.5,293.5C 591.5,292.167 591.5,290.833 591.5,289.5C 592.5,289.5 593.5,289.5 594.5,289.5C 594.5,290.5 594.5,291.5 594.5,292.5 Z"/></g>
<g><path style="opacity:1" fill="#b3993c" d="M 594.5,292.5 C 595.991,303.967 596.658,315.634 596.5,327.5C 595.887,320.602 595.053,313.602 594,306.5C 593.784,308.384 593.117,310.051 592,311.5C 591.846,320.051 591.013,328.384 589.5,336.5C 589.777,321.992 590.443,307.659 591.5,293.5C 592.222,293.082 592.722,292.416 593,291.5C 593.383,292.056 593.883,292.389 594.5,292.5 Z"/></g>
<g><path style="opacity:1" fill="#e7c64e" d="M 596.5,327.5 C 597.652,332.985 597.818,338.651 597,344.5C 595.116,346.576 592.949,346.91 590.5,345.5C 589.593,342.579 589.26,339.579 589.5,336.5C 591.013,328.384 591.846,320.051 592,311.5C 593.117,310.051 593.784,308.384 594,306.5C 595.053,313.602 595.887,320.602 596.5,327.5 Z"/></g>
<g><path style="opacity:1" fill="#8a772e" d="M 635.5,308.5 C 637.833,308.5 640.167,308.5 642.5,308.5C 642.737,309.791 642.404,310.791 641.5,311.5C 639.844,309.94 637.844,308.94 635.5,308.5 Z"/></g>
<g><path style="opacity:1" fill="#d6b748" d="M 554.5,304.5 C 556.256,305.552 556.923,307.219 556.5,309.5C 558.665,309.116 560.332,309.783 561.5,311.5C 559.604,312.466 557.604,312.799 555.5,312.5C 555.833,315.5 554.5,316.833 551.5,316.5C 551.5,314.833 551.5,313.167 551.5,311.5C 549.023,311.949 547.023,311.283 545.5,309.5C 549.444,309.216 552.444,307.549 554.5,304.5 Z"/></g>
<g><path style="opacity:1" fill="#d9ba49" d="M 635.5,308.5 C 637.844,308.94 639.844,309.94 641.5,311.5C 639.833,311.5 638.167,311.5 636.5,311.5C 636.949,313.977 636.283,315.977 634.5,317.5C 633.05,316.15 632.383,314.484 632.5,312.5C 630.396,312.799 628.396,312.466 626.5,311.5C 627.668,309.783 629.335,309.116 631.5,309.5C 631.65,303.261 632.983,302.927 635.5,308.5 Z"/></g>
<g><path style="opacity:0.176" fill="#fad957" d="M 941.5,321.5 C 941.5,320.833 941.5,320.167 941.5,319.5C 943.17,319.751 944.67,320.418 946,321.5C 946.572,318.293 948.405,316.626 951.5,316.5C 950.874,319.315 949.54,321.815 947.5,324C 946.5,324.667 945.5,324.667 944.5,324C 943.627,322.955 942.627,322.122 941.5,321.5 Z"/></g>
<g><path style="opacity:0.09" fill="#fbd654" d="M 248.5,317.5 C 248.5,318.5 248.5,319.5 248.5,320.5C 242.156,326.608 238.156,325.274 236.5,316.5C 239.595,316.626 241.428,318.293 242,321.5C 244.052,319.942 246.219,318.608 248.5,317.5 Z"/></g>
<g><path style="opacity:1" fill="#ab890c" d="M 314.5,131.5 C 313.942,132.79 312.942,133.623 311.5,134C 313.247,134.352 314.914,134.852 316.5,135.5C 311.768,137.702 307.101,140.202 302.5,143C 298.667,146.833 294.833,150.667 291,154.5C 287.605,159.764 285.272,165.431 284,171.5C 283.5,273.833 283.333,376.166 283.5,478.5C 282.668,454.67 282.168,430.67 282,406.5C 281.667,412.5 281.333,418.5 281,424.5C 280.667,418.167 280.333,411.833 280,405.5C 279.831,418.007 279.331,430.34 278.5,442.5C 278.333,352.166 278.5,261.833 279,171.5C 283.16,151.499 294.994,138.165 314.5,131.5 Z"/></g>
<g><path style="opacity:1" fill="#6d5d25" d="M 372.5,341.5 C 371.167,341.5 370.5,342.167 370.5,343.5C 368.841,342.166 367.508,340.499 366.5,338.5C 369.263,337.533 371.263,338.533 372.5,341.5 Z"/></g>
<g><path style="opacity:1" fill="#5c4f1f" d="M 476.5,349.5 C 476.665,346.15 476.498,342.817 476,339.5C 475.617,340.056 475.117,340.389 474.5,340.5C 474.354,338.058 475.187,337.391 477,338.5C 477.81,342.358 477.643,346.024 476.5,349.5 Z"/></g>
<g><path style="opacity:1" fill="#816e2b" d="M 815.5,343.5 C 815.631,342.761 815.464,342.094 815,341.5C 813.871,343.141 812.371,344.141 810.5,344.5C 812.72,341.713 815.386,339.38 818.5,337.5C 819.467,340.263 818.467,342.263 815.5,343.5 Z"/></g>
<g><path style="opacity:1" fill="#7b6929" d="M 891.5,346.5 C 892.947,345.115 893.947,345.448 894.5,347.5C 893.609,346.89 892.609,346.557 891.5,346.5 Z"/></g>
<g><path style="opacity:1" fill="#9d8635" d="M 713.5,343.5 C 713.5,346.167 713.5,348.833 713.5,351.5C 716.833,351.5 720.167,351.5 723.5,351.5C 721.012,353.388 718.012,354.055 714.5,353.5C 714.042,363.995 713.042,363.995 711.5,353.5C 704.5,352.833 697.5,352.167 690.5,351.5C 697.5,351.5 704.5,351.5 711.5,351.5C 710.669,347.524 710.503,343.524 711,339.5C 711.308,338.692 711.808,338.025 712.5,337.5C 713.466,339.396 713.799,341.396 713.5,343.5 Z"/></g>
<g><path style="opacity:1" fill="#a58d37" d="M 476.5,349.5 C 482.074,351.453 488.074,352.12 494.5,351.5C 488.5,352.167 482.5,352.833 476.5,353.5C 474.958,363.995 473.958,363.995 473.5,353.5C 470.102,353.82 466.768,353.487 463.5,352.5C 467.107,351.511 470.774,351.177 474.5,351.5C 474.5,347.833 474.5,344.167 474.5,340.5C 475.117,340.389 475.617,340.056 476,339.5C 476.498,342.817 476.665,346.15 476.5,349.5 Z"/></g>
<g><path style="opacity:1" fill="#383013" d="M 713.5,343.5 C 714.468,345.607 714.802,347.941 714.5,350.5C 717.713,350.19 720.713,350.523 723.5,351.5C 720.167,351.5 716.833,351.5 713.5,351.5C 713.5,348.833 713.5,346.167 713.5,343.5 Z"/></g>
<g><path style="opacity:1" fill="#6a5b23" d="M 494.5,351.5 C 497.598,351.413 497.932,351.913 495.5,353C 489.175,353.5 482.842,353.666 476.5,353.5C 482.5,352.833 488.5,352.167 494.5,351.5 Z"/></g>
<g><path style="opacity:1" fill="#6b5c24" d="M 690.5,351.5 C 697.5,352.167 704.5,352.833 711.5,353.5C 704.137,353.831 696.803,353.497 689.5,352.5C 689.624,351.893 689.957,351.56 690.5,351.5 Z"/></g>
<g><path style="opacity:1" fill="#d4ac1f" d="M 911.5,174.5 C 911.5,175.167 911.5,175.833 911.5,176.5C 911.667,297.167 911.5,417.834 911,538.5C 910.667,533.5 910.333,528.5 910,523.5C 909.623,524.942 908.79,525.942 907.5,526.5C 907.333,409.833 907.5,293.166 908,176.5C 908.202,174.744 908.702,173.078 909.5,171.5C 910.176,172.602 910.842,173.602 911.5,174.5 Z"/></g>
<g><path style="opacity:1" fill="#b39a3c" d="M 527.5,348.5 C 529.042,349.163 530.709,349.83 532.5,350.5C 530.785,352.882 528.785,354.882 526.5,356.5C 525.508,356.672 524.842,356.338 524.5,355.5C 525.29,354.206 526.29,353.039 527.5,352C 527.272,351.601 526.938,351.435 526.5,351.5C 526.263,350.209 526.596,349.209 527.5,348.5 Z"/></g>
<g><path style="opacity:1" fill="#746327" d="M 524.5,355.5 C 524.842,356.338 525.508,356.672 526.5,356.5C 528.2,358.21 529.533,360.21 530.5,362.5C 527.933,363.854 525.599,363.52 523.5,361.5C 526.911,360.391 526.911,358.725 523.5,356.5C 523.624,355.893 523.957,355.56 524.5,355.5 Z"/></g>
<g><path style="opacity:1" fill="#685923" d="M 527.5,348.5 C 526.596,349.209 526.263,350.209 526.5,351.5C 521.952,351.801 518.785,349.801 517,345.5C 516.105,347.804 515.271,350.138 514.5,352.5C 512.004,353.58 509.67,354.914 507.5,356.5C 509.465,357.292 511.465,357.959 513.5,358.5C 514.298,358.957 514.631,359.624 514.5,360.5C 513.848,361.449 513.514,362.615 513.5,364C 513.608,365.681 514.275,366.848 515.5,367.5C 514.791,368.404 513.791,368.737 512.5,368.5C 512.5,365.5 512.5,362.5 512.5,359.5C 508.738,359.373 505.072,358.706 501.5,357.5C 504.998,355.25 508.664,353.25 512.5,351.5C 513.167,347.833 513.833,344.167 514.5,340.5C 517.578,343.255 520.578,345.921 523.5,348.5C 525.151,346.265 526.484,346.265 527.5,348.5 Z"/></g>
<g><path style="opacity:1" fill="#625421" d="M 675.5,365.5 C 674.005,365.011 672.671,364.345 671.5,363.5C 672.977,359.371 675.977,357.037 680.5,356.5C 677.914,354.957 675.414,353.291 673,351.5C 672.64,349.392 671.973,347.392 671,345.5C 669.483,347.24 667.983,348.906 666.5,350.5C 663.5,349.833 660.5,349.167 657.5,348.5C 660.518,348.665 663.518,348.498 666.5,348C 668.396,345.061 670.73,342.561 673.5,340.5C 674.324,343.785 674.824,347.118 675,350.5C 678.759,352.963 682.593,355.296 686.5,357.5C 682.928,358.706 679.262,359.373 675.5,359.5C 675.5,361.5 675.5,363.5 675.5,365.5 Z"/></g>
<g><path style="opacity:1" fill="#7f6c2a" d="M 657.5,348.5 C 660.5,349.167 663.5,349.833 666.5,350.5C 664.708,351.309 662.708,351.809 660.5,352C 661.868,353.34 663.201,354.674 664.5,356C 663.491,357.168 662.491,358.335 661.5,359.5C 662.5,360.167 663.5,360.833 664.5,361.5C 662.344,363.009 660.01,364.009 657.5,364.5C 657.762,361.309 659.095,358.642 661.5,356.5C 659.517,355.018 657.684,353.351 656,351.5C 655.417,353.002 654.584,354.335 653.5,355.5C 653.167,355.167 652.833,354.833 652.5,354.5C 653.648,351.711 654.981,349.044 656.5,346.5C 657.298,346.957 657.631,347.624 657.5,348.5 Z"/></g>
<g><path style="opacity:1" fill="#e9c74e" d="M 372.5,341.5 C 389.558,355.392 405.891,370.225 421.5,386C 429.416,388.923 430.416,393.256 424.5,399C 419.902,400.091 417.069,398.257 416,393.5C 400.627,376.963 385.46,360.296 370.5,343.5C 370.5,342.167 371.167,341.5 372.5,341.5 Z"/></g>
<g><path style="opacity:1" fill="#e8c74e" d="M 815.5,343.5 C 799.375,362.129 783.042,380.629 766.5,399C 759.676,399.494 757.176,396.328 759,389.5C 776.038,374.291 793.205,359.291 810.5,344.5C 812.371,344.141 813.871,343.141 815,341.5C 815.464,342.094 815.631,342.761 815.5,343.5 Z"/></g>
<g><path style="opacity:1" fill="#9e8835" d="M 671.5,363.5 C 672.671,364.345 674.005,365.011 675.5,365.5C 675.5,366.5 675.5,367.5 675.5,368.5C 671.869,367.392 668.869,365.226 666.5,362C 668.495,361.387 670.162,361.887 671.5,363.5 Z"/></g>
<g><path style="opacity:1" fill="#ac933a" d="M 514.5,360.5 C 514.395,365.154 515.729,365.654 518.5,362C 519.5,361.333 520.5,361.333 521.5,362C 519.63,364.04 517.63,365.873 515.5,367.5C 514.275,366.848 513.608,365.681 513.5,364C 513.514,362.615 513.848,361.449 514.5,360.5 Z"/></g>
<g><path style="opacity:1" fill="#6e5e25" d="M 688.5,362.5 C 689.465,363.721 689.298,365.054 688,366.5C 686.49,368.208 684.99,369.874 683.5,371.5C 682.479,370.998 682.312,370.332 683,369.5C 685.325,367.499 687.158,365.166 688.5,362.5 Z"/></g>
<g><path style="opacity:1" fill="#7f6c2a" d="M 495.5,365.5 C 498.221,366.696 499.387,368.696 499,371.5C 497.053,369.937 495.886,367.937 495.5,365.5 Z"/></g>
<g><path style="opacity:1" fill="#594c1e" d="M 551.5,382.5 C 549.007,382.131 548.34,382.797 549.5,384.5C 548.005,384.585 547.005,383.919 546.5,382.5C 548.299,381.212 549.965,381.212 551.5,382.5 Z"/></g>
<g><path style="opacity:1" fill="#9a8434" d="M 627.5,379.5 C 628.5,379.5 629.5,379.5 630.5,379.5C 630.5,380.5 630.5,381.5 630.5,382.5C 633.85,382.335 637.183,382.502 640.5,383C 638.138,384.731 635.471,385.565 632.5,385.5C 632.351,389.123 631.184,389.457 629,386.5C 626.479,387.673 623.979,387.673 621.5,386.5C 623.769,385.185 626.102,384.018 628.5,383C 627.663,381.989 627.33,380.822 627.5,379.5 Z"/></g>
<g><path style="opacity:1" fill="#a28a36" d="M 549.5,384.5 C 548.34,382.797 549.007,382.131 551.5,382.5C 554.746,382.865 557.412,381.865 559.5,379.5C 560.645,380.776 560.645,382.109 559.5,383.5C 568.936,386.513 568.77,387.513 559,386.5C 556.816,389.457 555.649,389.123 555.5,385.5C 553.379,385.675 551.379,385.341 549.5,384.5 Z"/></g>
<g><path style="opacity:1" fill="#b0973b" d="M 457.5,386.5 C 461.165,386.817 462.665,388.817 462,392.5C 459.695,390.978 458.195,388.978 457.5,386.5 Z"/></g>
<g><path style="opacity:1" fill="#bba03f" d="M 722.5,386.5 C 724.225,386.843 724.725,387.843 724,389.5C 722.667,390.833 721.333,392.167 720,393.5C 720.22,391.037 721.054,388.704 722.5,386.5 Z"/></g>
<g><path style="opacity:1" fill="#9f8935" d="M 463.5,405.5 C 465.258,405.877 466.925,406.544 468.5,407.5C 474.078,404.529 475.078,405.196 471.5,409.5C 473.46,411.156 475.46,412.823 477.5,414.5C 477,414.833 476.5,415.167 476,415.5C 473.558,414.03 471.058,412.696 468.5,411.5C 466.896,411.939 465.396,412.606 464,413.5C 463.5,413.167 463,412.833 462.5,412.5C 463.313,411.186 464.313,410.019 465.5,409C 464.177,408.184 463.511,407.017 463.5,405.5 Z"/></g>
<g><path style="opacity:1" fill="#ba9613" d="M 273.5,418.5 C 272.876,425.09 271.876,431.756 270.5,438.5C 269.575,437.359 268.741,437.359 268,438.5C 267.667,431.833 267.333,425.167 267,418.5C 266.832,437.005 266.332,455.338 265.5,473.5C 265.5,446.167 265.5,418.833 265.5,391.5C 266.329,384.679 266.829,377.679 267,370.5C 267.333,378.833 267.667,387.167 268,395.5C 269,396.833 270,396.833 271,395.5C 272.032,385.861 272.699,376.194 273,366.5C 273.5,383.83 273.667,401.163 273.5,418.5 Z"/></g>
<g><path style="opacity:1" fill="#9d8635" d="M 713.5,405.5 C 715.677,405.586 717.677,406.253 719.5,407.5C 721.412,405.844 723.412,405.511 725.5,406.5C 724.5,407.333 723.5,408.167 722.5,409C 723.687,410.019 724.687,411.186 725.5,412.5C 725,412.833 724.5,413.167 724,413.5C 722.604,412.606 721.104,411.939 719.5,411.5C 716.87,412.815 714.203,414.149 711.5,415.5C 711.167,415.167 710.833,414.833 710.5,414.5C 712.54,412.823 714.54,411.156 716.5,409.5C 715.174,408.358 714.174,407.024 713.5,405.5 Z"/></g>
<g><path style="opacity:1" fill="#706026" d="M 496.5,387.5 C 514.58,410.137 531.58,433.637 547.5,458C 546.833,458.667 546.167,458.667 545.5,458C 528.777,434.704 512.444,411.204 496.5,387.5 Z"/></g>
<g><path style="opacity:1" fill="#7b6829" d="M 593.5,413.5 C 593.56,412.957 593.893,412.624 594.5,412.5C 595.474,414.743 595.808,417.076 595.5,419.5C 594.833,417.5 594.167,415.5 593.5,413.5 Z"/></g>
<g><path style="opacity:1" fill="#625421" d="M 549.5,388.5 C 550.966,389.347 551.8,390.68 552,392.5C 560.489,421.624 567.323,451.124 572.5,481C 572.167,481.5 571.833,482 571.5,482.5C 564.816,451.096 557.483,419.763 549.5,388.5 Z"/></g>
<g><path style="opacity:1" fill="#635521" d="M 637.5,388.5 C 638.124,388.917 638.457,389.584 638.5,390.5C 630.213,420.978 622.88,451.644 616.5,482.5C 620.66,450.719 627.66,419.386 637.5,388.5 Z"/></g>
<g><path style="opacity:1" fill="#706026" d="M 522.5,397.5 C 523.458,397.953 524.292,398.619 525,399.5C 537.452,423.572 550.285,447.406 563.5,471C 562.833,471.667 562.167,471.667 561.5,471C 547.653,446.968 534.653,422.468 522.5,397.5 Z"/></g>
<g><path style="opacity:1" fill="#736327" d="M 690.5,387.5 C 691.465,388.721 691.298,390.054 690,391.5C 674.278,412.889 658.945,434.556 644,456.5C 643.163,458.007 641.996,458.507 640.5,458C 656.562,434.032 673.229,410.532 690.5,387.5 Z"/></g>
<g><path style="opacity:1" fill="#f1cf51" d="M 593.5,413.5 C 594.167,415.5 594.833,417.5 595.5,419.5C 596.557,437.475 597.557,455.475 598.5,473.5C 598.09,484.719 598.756,495.719 600.5,506.5C 600.26,512.227 600.593,517.894 601.5,523.5C 601.5,530.5 601.5,537.5 601.5,544.5C 602.791,544.737 603.791,544.404 604.5,543.5C 618.001,529.834 632.001,516.667 646.5,504C 655.744,496.255 665.411,489.088 675.5,482.5C 676.583,483.365 676.749,484.365 676,485.5C 657.515,510.161 637.348,533.495 615.5,555.5C 616.729,556.281 618.062,556.781 619.5,557C 645.828,558.69 672.161,560.19 698.5,561.5C 710.62,563.248 722.953,563.915 735.5,563.5C 737.167,563.5 738.833,563.5 740.5,563.5C 740.5,564.167 740.833,564.5 741.5,564.5C 727.849,565.949 714.182,567.282 700.5,568.5C 681.484,569.278 662.484,570.278 643.5,571.5C 635.656,571.82 627.989,572.487 620.5,573.5C 618.712,573.215 617.045,573.548 615.5,574.5C 635.263,595.091 654.096,616.424 672,638.5C 673.753,641.005 675.253,643.671 676.5,646.5C 676.167,646.833 675.833,647.167 675.5,647.5C 665.746,641.246 656.412,634.413 647.5,627C 632.683,613.684 618.017,600.184 603.5,586.5C 602.337,593.455 601.67,600.455 601.5,607.5C 599.748,622.3 598.748,637.3 598.5,652.5C 597.179,662.974 596.512,673.641 596.5,684.5C 597.068,695.296 596.234,705.963 594,716.5C 593.064,712.886 592.564,709.22 592.5,705.5C 592.716,690.305 592.05,675.305 590.5,660.5C 589.534,652.92 589.201,645.253 589.5,637.5C 589.912,628.6 589.246,619.933 587.5,611.5C 586.725,606.203 586.392,600.87 586.5,595.5C 586.82,592.102 586.487,588.768 585.5,585.5C 584.893,585.624 584.56,585.957 584.5,586.5C 564.262,605.908 543.262,624.408 521.5,642C 518.5,643.833 515.5,645.667 512.5,647.5C 512.167,647.167 511.833,646.833 511.5,646.5C 516.806,638.694 522.306,631.027 528,623.5C 542.152,606.856 556.986,590.856 572.5,575.5C 573.404,574.791 573.737,573.791 573.5,572.5C 568.5,572.5 563.5,572.5 558.5,572.5C 521.825,570.146 485.158,568.146 448.5,566.5C 448.082,565.778 447.416,565.278 446.5,565C 448.167,564.667 449.833,564.333 451.5,564C 460.01,563.829 468.343,563.329 476.5,562.5C 508.714,560.811 541.048,558.644 573.5,556C 558.55,539.928 543.717,523.762 529,507.5C 523.089,500.011 517.423,492.345 512,484.5C 511.312,483.668 511.479,483.002 512.5,482.5C 524.37,490.27 535.703,498.77 546.5,508C 559.036,520.038 571.703,531.872 584.5,543.5C 584.56,544.043 584.893,544.376 585.5,544.5C 586.474,542.257 586.808,539.924 586.5,537.5C 586.5,534.833 586.5,532.167 586.5,529.5C 588.175,519.383 588.841,509.05 588.5,498.5C 588.76,492.828 589.093,487.161 589.5,481.5C 591.527,462.039 592.527,442.372 592.5,422.5C 592.508,419.455 592.841,416.455 593.5,413.5 Z"/></g>
<g><path style="opacity:1" fill="#6f5f25" d="M 664.5,397.5 C 665.573,398.251 665.74,399.251 665,400.5C 652.747,424.68 639.747,448.347 626,471.5C 625.743,468.983 626.41,466.65 628,464.5C 640.179,442.14 652.346,419.806 664.5,397.5 Z"/></g>
<g><path style="opacity:1" fill="#a48c37" d="M 745.5,432.5 C 747.145,433.479 748.479,434.812 749.5,436.5C 750.281,435.263 751.281,434.263 752.5,433.5C 752.833,434 753.167,434.5 753.5,435C 752.833,436.333 752.167,437.667 751.5,439C 752.409,440.789 752.576,442.623 752,444.5C 751.311,443.643 750.478,442.977 749.5,442.5C 747.5,444.5 745.5,446.5 743.5,448.5C 743.167,448.167 742.833,447.833 742.5,447.5C 744.299,444.733 745.966,441.899 747.5,439C 745.987,437.121 745.321,434.954 745.5,432.5 Z"/></g>
<g><path style="opacity:1" fill="#9d8735" d="M 298.5,346.5 C 297.778,346.918 297.278,347.584 297,348.5C 296.5,514.833 296.333,681.166 296.5,847.5C 295.334,681.001 295.167,514.334 296,347.5C 296.601,345.641 297.434,345.308 298.5,346.5 Z"/></g>
<g><path style="opacity:1" fill="#83702c" d="M 592.5,422.5 C 592.527,442.372 591.527,462.039 589.5,481.5C 590.114,461.659 591.114,441.992 592.5,422.5 Z"/></g>
<g><path style="opacity:1" fill="#b89d3d" d="M 406.5,437.5 C 409.225,438.713 411.559,440.546 413.5,443C 411.402,442.968 409.402,442.301 407.5,441C 406.663,439.989 406.33,438.822 406.5,437.5 Z"/></g>
<g><path style="opacity:1" fill="#a99139" d="M 773.5,437.5 C 774.5,437.5 775.5,437.5 776.5,437.5C 775.481,441.02 773.148,442.853 769.5,443C 771.464,441.549 772.797,439.716 773.5,437.5 Z"/></g>
<g><path style="opacity:1" fill="#9d8635" d="M 441.5,432.5 C 442.376,432.369 443.043,432.702 443.5,433.5C 442.62,435.429 441.62,437.263 440.5,439C 442.034,441.899 443.701,444.733 445.5,447.5C 445.167,447.833 444.833,448.167 444.5,448.5C 442.507,446.334 440.673,444.001 439,441.5C 435.502,445.313 434.668,444.48 436.5,439C 435.971,437.441 435.304,435.941 434.5,434.5C 434.833,434.167 435.167,433.833 435.5,433.5C 437.987,436.261 439.987,435.927 441.5,432.5 Z"/></g>
<g><path style="opacity:1" fill="#a28a36" d="M 380.5,434.5 C 382.402,437.337 383.069,440.671 382.5,444.5C 392.969,444.701 392.969,445.368 382.5,446.5C 382.831,453.863 382.497,461.197 381.5,468.5C 380.503,461.532 380.17,454.532 380.5,447.5C 363.27,447.128 363.27,446.128 380.5,444.5C 380.5,441.167 380.5,437.833 380.5,434.5 Z"/></g>
<g><path style="opacity:1" fill="#a48c37" d="M 805.5,434.5 C 807.414,437.684 808.08,441.351 807.5,445.5C 811.846,445.334 816.179,445.501 820.5,446C 816.365,447.431 812.032,447.931 807.5,447.5C 806.833,475.5 806.167,475.5 805.5,447.5C 802.518,447.896 799.851,447.229 797.5,445.5C 800.086,444.52 802.753,444.187 805.5,444.5C 805.5,441.167 805.5,437.833 805.5,434.5 Z"/></g>
<g><path style="opacity:1" fill="#7c6a2a" d="M 701.5,416.5 C 702.465,417.721 702.298,419.054 701,420.5C 682.461,444.713 662.794,468.046 642,490.5C 642.398,488.369 643.398,486.369 645,484.5C 664.422,462.252 683.255,439.585 701.5,416.5 Z"/></g>
<g><path style="opacity:1" fill="#6a5b23" d="M 535.5,459.5 C 534.662,459.842 534.328,460.508 534.5,461.5C 532.61,459.41 530.943,457.077 529.5,454.5C 531.839,455.116 533.839,456.782 535.5,459.5 Z"/></g>
<g><path style="opacity:1" fill="#7f6c2a" d="M 652.5,463.5 C 652.062,462.494 651.396,462.494 650.5,463.5C 652.739,460.047 655.239,456.714 658,453.5C 658.315,454.908 657.982,456.241 657,457.5C 655.236,459.389 653.736,461.389 652.5,463.5 Z"/></g>
<g><path style="opacity:1" fill="#7a6929" d="M 485.5,416.5 C 504.76,439.602 524.26,462.602 544,485.5C 545.289,487.055 545.956,488.721 546,490.5C 524.142,467.058 503.976,442.391 485.5,416.5 Z"/></g>
<g><path style="opacity:1" fill="#d8b948" d="M 535.5,459.5 C 545.802,472.643 555.135,486.476 563.5,501C 563.15,502.257 562.483,502.591 561.5,502C 550.629,489.762 541.629,476.262 534.5,461.5C 534.328,460.508 534.662,459.842 535.5,459.5 Z"/></g>
<g><path style="opacity:1" fill="#5e501f" d="M 817.5,485.5 C 816.726,484.853 815.726,484.52 814.5,484.5C 812.97,484.64 811.97,485.307 811.5,486.5C 809.914,485.852 808.247,485.352 806.5,485C 805.126,482.417 803.626,479.917 802,477.5C 802.361,482.971 799.861,485.637 794.5,485.5C 794.167,484.833 793.833,484.167 793.5,483.5C 795.467,483.739 797.301,483.406 799,482.5C 799.297,479.086 799.964,475.753 801,472.5C 803.543,475.749 805.709,479.249 807.5,483C 811.211,483.175 814.878,483.675 818.5,484.5C 818.376,485.107 818.043,485.44 817.5,485.5 Z"/></g>
<g><path style="opacity:1" fill="#7d6b2a" d="M 739.5,456.5 C 740.239,456.369 740.906,456.536 741.5,457C 717.874,476.291 694.54,495.958 671.5,516C 670.241,516.982 668.908,517.315 667.5,517C 691.015,496.102 715.015,475.935 739.5,456.5 Z"/></g>
<g><path style="opacity:1" fill="#584b1e" d="M 394.5,483.5 C 394.167,484.167 393.833,484.833 393.5,485.5C 388.114,485.806 385.614,483.14 386,477.5C 384.542,482.508 381.375,485.508 376.5,486.5C 376.03,485.307 375.03,484.64 373.5,484.5C 372.274,484.52 371.274,484.853 370.5,485.5C 369.957,485.44 369.624,485.107 369.5,484.5C 373.122,483.675 376.789,483.175 380.5,483C 382.667,479.5 384.833,476 387,472.5C 388.44,476.041 389.274,479.708 389.5,483.5C 391.167,483.5 392.833,483.5 394.5,483.5 Z"/></g>
<g><path style="opacity:1" fill="#796829" d="M 446.5,457.5 C 446.56,456.957 446.893,456.624 447.5,456.5C 472.571,475.713 496.904,495.879 520.5,517C 518.721,516.956 517.055,516.289 515.5,515C 492.919,495.245 469.919,476.079 446.5,457.5 Z"/></g>
<g><path style="opacity:1" fill="#ddbd4a" d="M 652.5,463.5 C 645.58,477.676 636.913,490.676 626.5,502.5C 625.386,501.277 625.219,499.944 626,498.5C 633.64,486.377 641.807,474.711 650.5,463.5C 651.396,462.494 652.062,462.494 652.5,463.5 Z"/></g>
<g><path style="opacity:1" fill="#cfa820" d="M 273.5,418.5 C 273.5,444.5 273.5,470.5 273.5,496.5C 272.67,504.349 271.837,512.349 271,520.5C 269.322,521.682 269.488,522.848 271.5,524C 271.333,524.5 271.167,525 271,525.5C 270.29,524.027 269.124,523.36 267.5,523.5C 266.406,550.825 266.072,604.159 266.5,683.5C 266.167,683.5 265.833,683.5 265.5,683.5C 265.5,613.5 265.5,543.5 265.5,473.5C 266.332,455.338 266.832,437.005 267,418.5C 267.333,425.167 267.667,431.833 268,438.5C 268.741,437.359 269.575,437.359 270.5,438.5C 271.876,431.756 272.876,425.09 273.5,418.5 Z"/></g>
<g><path style="opacity:1" fill="#a78e38" d="M 394.5,483.5 C 395.5,483.5 396.5,483.5 397.5,483.5C 396.909,486.614 395.242,489.114 392.5,491C 391.668,491.688 391.002,491.521 390.5,490.5C 391.952,489.06 392.952,487.394 393.5,485.5C 393.833,484.833 394.167,484.167 394.5,483.5 Z"/></g>
<g><path style="opacity:1" fill="#a08936" d="M 793.5,483.5 C 793.833,484.167 794.167,484.833 794.5,485.5C 798.245,493.205 797.079,493.538 791,486.5C 790.517,485.552 790.351,484.552 790.5,483.5C 791.5,483.5 792.5,483.5 793.5,483.5 Z"/></g>
<g><path style="opacity:1" fill="#7d6b2a" d="M 598.5,473.5 C 599.452,484.33 600.118,495.33 600.5,506.5C 598.756,495.719 598.09,484.719 598.5,473.5 Z"/></g>
<g><path style="opacity:1" fill="#85722d" d="M 817.5,485.5 C 815.521,488.146 813.188,490.479 810.5,492.5C 809.833,496.167 809.167,499.833 808.5,503.5C 806.183,501.684 804.016,499.684 802,497.5C 794.341,503.438 792.841,502.104 797.5,493.5C 798.167,494.5 798.833,495.5 799.5,496.5C 800.5,495.833 801.5,495.167 802.5,494.5C 804.149,495.648 805.649,496.981 807,498.5C 806.988,493.495 809.155,489.662 813.5,487C 812.906,486.536 812.239,486.369 811.5,486.5C 811.97,485.307 812.97,484.64 814.5,484.5C 815.726,484.52 816.726,484.853 817.5,485.5 Z"/></g>
<g><path style="opacity:1" fill="#83702c" d="M 376.5,486.5 C 375.761,486.369 375.094,486.536 374.5,487C 378.845,489.662 381.012,493.495 381,498.5C 382.351,496.981 383.851,495.648 385.5,494.5C 386.5,495.167 387.5,495.833 388.5,496.5C 389.167,495.5 389.833,494.5 390.5,493.5C 392.653,495.929 393.319,498.596 392.5,501.5C 390.167,500.167 387.833,498.833 385.5,497.5C 383.833,499.833 381.833,501.833 379.5,503.5C 378.833,499.833 378.167,496.167 377.5,492.5C 374.812,490.479 372.479,488.146 370.5,485.5C 371.274,484.853 372.274,484.52 373.5,484.5C 375.03,484.64 376.03,485.307 376.5,486.5 Z"/></g>
<g><path style="opacity:1" fill="#e6c64d" d="M 891.5,346.5 C 892.609,346.557 893.609,346.89 894.5,347.5C 894.5,514.5 894.5,681.5 894.5,848.5C 893.178,848.67 892.011,848.337 891,847.5C 890.167,680.333 890.334,513.333 891.5,346.5 Z"/></g>
<g><path style="opacity:1" fill="#726226" d="M 416.5,466.5 C 440.344,483.503 464.344,500.336 488.5,517C 486.711,517.52 485.044,517.187 483.5,516C 461.972,501.736 440.972,486.736 420.5,471C 418.808,469.693 417.475,468.193 416.5,466.5 Z"/></g>
<g><path style="opacity:1" fill="#726226" d="M 770.5,466.5 C 771.043,466.56 771.376,466.893 771.5,467.5C 749.002,485.331 725.669,501.997 701.5,517.5C 701.167,517.167 700.833,516.833 700.5,516.5C 724.153,500.164 747.487,483.498 770.5,466.5 Z"/></g>
<g><path style="opacity:1" fill="#695a23" d="M 699.5,506.5 C 699.158,505.662 698.492,505.328 697.5,505.5C 699.59,503.61 701.923,501.943 704.5,500.5C 705.521,501.002 705.688,501.668 705,502.5C 703.008,503.665 701.175,504.998 699.5,506.5 Z"/></g>
<g><path style="opacity:1" fill="#6c5c24" d="M 813.5,505.5 C 814.675,505.281 815.675,505.614 816.5,506.5C 813.842,507.829 811.176,509.162 808.5,510.5C 808.167,510.167 807.833,509.833 807.5,509.5C 809.565,508.143 811.565,506.81 813.5,505.5 Z"/></g>
<g><path style="opacity:1" fill="#695a23" d="M 366.5,505.5 C 369.843,506.059 372.843,507.392 375.5,509.5C 375.167,509.833 374.833,510.167 374.5,510.5C 372.615,509.391 370.615,508.557 368.5,508C 367.244,507.583 366.577,506.75 366.5,505.5 Z"/></g>
<g><path style="opacity:1" fill="#8d782f" d="M 495.5,508.5 C 494.508,508.328 493.842,508.662 493.5,509.5C 490.185,507.192 486.851,504.859 483.5,502.5C 482.167,501.833 482.167,501.167 483.5,500.5C 487.565,503.19 491.565,505.857 495.5,508.5 Z"/></g>
<g><path style="opacity:1" fill="#706025" d="M 758.5,493.5 C 760.842,493.775 760.842,494.608 758.5,496C 735.373,508.064 712.373,520.398 689.5,533C 688.5,533.667 687.5,533.667 686.5,533C 710.113,519.029 734.113,505.862 758.5,493.5 Z"/></g>
<g><path style="opacity:1" fill="#dbbb49" d="M 495.5,508.5 C 509.182,514.85 521.515,523.184 532.5,533.5C 532,533.833 531.5,534.167 531,534.5C 517.518,527.495 505.018,519.162 493.5,509.5C 493.842,508.662 494.508,508.328 495.5,508.5 Z"/></g>
<g><path style="opacity:1" fill="#d7b848" d="M 697.5,505.5 C 698.492,505.328 699.158,505.662 699.5,506.5C 686.217,516.815 672.217,526.149 657.5,534.5C 656.479,533.998 656.312,533.332 657,532.5C 669.022,521.317 682.522,512.317 697.5,505.5 Z"/></g>
<g><path style="opacity:1" fill="#706126" d="M 850.5,523.5 C 849.835,521.631 849.169,519.631 848.5,517.5C 847.548,519.045 847.215,520.712 847.5,522.5C 845.833,522.5 844.167,522.5 842.5,522.5C 843.568,521.566 844.901,521.232 846.5,521.5C 846.051,519.023 846.717,517.023 848.5,515.5C 849.086,515.709 849.586,516.043 850,516.5C 850.497,518.81 850.663,521.143 850.5,523.5 Z"/></g>
<g><path style="opacity:1" fill="#dbbb49" d="M 339.5,530.5 C 339.5,529.167 339.5,527.833 339.5,526.5C 337.517,526.843 336.183,526.176 335.5,524.5C 336.209,523.596 337.209,523.263 338.5,523.5C 338.5,521.167 338.5,518.833 338.5,516.5C 339.5,516.5 340.5,516.5 341.5,516.5C 341.5,518.5 341.5,520.5 341.5,522.5C 343.167,522.5 344.833,522.5 346.5,522.5C 346.616,525.91 344.95,527.244 341.5,526.5C 341.662,528.527 341.495,530.527 341,532.5C 340.722,531.584 340.222,530.918 339.5,530.5 Z"/></g>
<g><path style="opacity:1" fill="#ddbd4a" d="M 850.5,523.5 C 853.39,523.527 854.39,524.693 853.5,527C 851.866,527.494 850.199,527.66 848.5,527.5C 847.038,534.009 846.371,533.675 846.5,526.5C 842.483,527.161 841.149,525.828 842.5,522.5C 844.167,522.5 845.833,522.5 847.5,522.5C 847.215,520.712 847.548,519.045 848.5,517.5C 849.169,519.631 849.835,521.631 850.5,523.5 Z"/></g>
<g><path style="opacity:1" fill="#a78e38" d="M 414.5,522.5 C 414.753,526.04 415.419,529.373 416.5,532.5C 416.539,533.583 416.873,534.583 417.5,535.5C 416.675,536.386 415.675,536.719 414.5,536.5C 414.167,534.5 413.833,532.5 413.5,530.5C 408.533,530.416 408.2,529.082 412.5,526.5C 411.425,523.562 411.259,520.562 412,517.5C 413.883,518.653 414.716,520.319 414.5,522.5 Z"/></g>
<g><path style="opacity:1" fill="#705f25" d="M 335.5,524.5 C 336.183,526.176 337.517,526.843 339.5,526.5C 339.5,527.833 339.5,529.167 339.5,530.5C 338.596,529.791 338.263,528.791 338.5,527.5C 336.335,527.884 334.668,527.217 333.5,525.5C 333.957,524.702 334.624,524.369 335.5,524.5 Z"/></g>
<g><path style="opacity:1" fill="#6c5c24" d="M 427.5,494.5 C 429.771,493.946 432.104,494.446 434.5,496C 457.026,508.094 479.359,520.427 501.5,533C 499.08,532.975 496.747,532.309 494.5,531C 472.076,518.792 449.743,506.625 427.5,494.5 Z"/></g>
<g><path style="opacity:1" fill="#736326" d="M 588.5,498.5 C 588.841,509.05 588.175,519.383 586.5,529.5C 586.694,518.984 587.361,508.651 588.5,498.5 Z"/></g>
<g><path style="opacity:1" fill="#4b4119" d="M 773.5,522.5 C 773.5,523.833 773.5,525.167 773.5,526.5C 772.209,526.263 771.209,526.596 770.5,527.5C 769.957,527.44 769.624,527.107 769.5,526.5C 770.325,525.614 771.325,525.281 772.5,525.5C 772.263,524.209 772.596,523.209 773.5,522.5 Z"/></g>
<g><path style="opacity:1" fill="#655622" d="M 766.5,519.5 C 767.978,519.238 769.311,519.571 770.5,520.5C 741.972,529.459 712.972,536.626 683.5,542C 681.167,542.667 678.833,542.667 676.5,542C 694.415,537.688 712.415,533.688 730.5,530C 742.819,527.167 754.819,523.667 766.5,519.5 Z"/></g>
<g><path style="opacity:1" fill="#ae953b" d="M 770.5,527.5 C 771.209,526.596 772.209,526.263 773.5,526.5C 773.5,525.167 773.5,523.833 773.5,522.5C 774.046,520.697 774.88,519.03 776,517.5C 776,520.833 776,524.167 776,527.5C 780.447,529.545 779.947,530.545 774.5,530.5C 774.872,533.022 774.039,535.022 772,536.5C 771.374,534.287 771.541,532.12 772.5,530C 771.944,528.989 771.278,528.156 770.5,527.5 Z"/></g>
<g><path style="opacity:1" fill="#675922" d="M 414.5,522.5 C 415.404,523.209 415.737,524.209 415.5,525.5C 416.675,525.281 417.675,525.614 418.5,526.5C 416.914,528.173 416.247,530.173 416.5,532.5C 415.419,529.373 414.753,526.04 414.5,522.5 Z"/></g>
<g><path style="opacity:1" fill="#635421" d="M 417.5,519.5 C 448.601,527.942 479.934,535.442 511.5,542C 507.131,542.425 502.797,542.092 498.5,541C 471.807,535.926 445.474,529.426 419.5,521.5C 418.287,521.253 417.62,520.586 417.5,519.5 Z"/></g>
<g><path style="opacity:1" fill="#8b772e" d="M 601.5,523.5 C 601.85,530.395 602.85,537.062 604.5,543.5C 603.791,544.404 602.791,544.737 601.5,544.5C 601.5,537.5 601.5,530.5 601.5,523.5 Z"/></g>
<g><path style="opacity:1" fill="#8f7a30" d="M 586.5,537.5 C 586.808,539.924 586.474,542.257 585.5,544.5C 584.893,544.376 584.56,544.043 584.5,543.5C 585.167,541.5 585.833,539.5 586.5,537.5 Z"/></g>
<g><path style="opacity:1" fill="#85722d" d="M 372.5,560.5 C 364.521,561.224 356.521,561.558 348.5,561.5C 354.829,560.639 361.329,559.973 368,559.5C 369.707,559.508 371.207,559.842 372.5,560.5 Z"/></g>
<g><path style="opacity:1" fill="#3f3616" d="M 813.5,560.5 C 815.978,559.836 818.645,559.503 821.5,559.5C 830.344,559.877 839.01,560.544 847.5,561.5C 836.157,561.42 824.824,561.087 813.5,560.5 Z"/></g>
<g><path style="opacity:1" fill="#edcb4f" d="M 372.5,560.5 C 375.865,562.235 376.199,564.402 373.5,567C 363.991,567.824 354.657,567.658 345.5,566.5C 340.651,565.834 335.651,565.167 330.5,564.5C 331.949,563.828 333.282,563.161 334.5,562.5C 336.415,562.784 338.081,562.451 339.5,561.5C 342.5,561.5 345.5,561.5 348.5,561.5C 356.521,561.558 364.521,561.224 372.5,560.5 Z"/></g>
<g><path style="opacity:1" fill="#e3c24c" d="M 813.5,560.5 C 824.824,561.087 836.157,561.42 847.5,561.5C 851.466,562.162 855.466,562.495 859.5,562.5C 860.263,563.268 861.263,563.768 862.5,564C 862.167,564.333 861.833,564.667 861.5,565C 856.981,565.175 852.647,565.675 848.5,566.5C 836.526,567.582 824.526,567.749 812.5,567C 810.98,564.448 811.313,562.282 813.5,560.5 Z"/></g>
<g><path style="opacity:1" fill="#947e31" d="M 698.5,561.5 C 711.005,561.851 723.338,562.518 735.5,563.5C 722.953,563.915 710.62,563.248 698.5,561.5 Z"/></g>
<g><path style="opacity:1" fill="#816e2b" d="M 476.5,562.5 C 468.343,563.329 460.01,563.829 451.5,564C 449.833,564.333 448.167,564.667 446.5,565C 447.416,565.278 448.082,565.778 448.5,566.5C 446.076,566.808 443.743,566.474 441.5,565.5C 441.709,564.914 442.043,564.414 442.5,564C 453.794,562.707 465.127,562.207 476.5,562.5 Z"/></g>
<g><path style="opacity:1" fill="#463c18" d="M 740.5,563.5 C 742.5,563.5 744.5,563.5 746.5,563.5C 746.5,564.5 746.5,565.5 746.5,566.5C 745.167,566.5 743.833,566.5 742.5,566.5C 743.263,565.732 744.263,565.232 745.5,565C 744.207,564.51 742.873,564.343 741.5,564.5C 740.833,564.5 740.5,564.167 740.5,563.5 Z"/></g>
<g><path style="opacity:1" fill="#ddb62b" d="M 273.5,496.5 C 273.5,550.167 273.5,603.833 273.5,657.5C 272.503,677.342 271.503,697.342 270.5,717.5C 269.833,717.167 269.167,716.833 268.5,716.5C 267.669,722.807 267.169,729.141 267,735.5C 266.5,718.17 266.333,700.837 266.5,683.5C 266.072,604.159 266.406,550.825 267.5,523.5C 269.124,523.36 270.29,524.027 271,525.5C 271.167,525 271.333,524.5 271.5,524C 269.488,522.848 269.322,521.682 271,520.5C 271.837,512.349 272.67,504.349 273.5,496.5 Z"/></g>
<g><path style="opacity:1" fill="#5d501f" d="M 339.5,561.5 C 338.081,562.451 336.415,562.784 334.5,562.5C 330.727,562.263 327.06,562.763 323.5,564C 325.502,565.019 327.502,565.852 329.5,566.5C 325.785,566.577 322.119,566.244 318.5,565.5C 318.5,564.5 318.5,563.5 318.5,562.5C 325.465,561.659 332.465,561.326 339.5,561.5 Z"/></g>
<g><path style="opacity:1" fill="#c2a641" d="M 334.5,562.5 C 333.282,563.161 331.949,563.828 330.5,564.5C 335.651,565.167 340.651,565.834 345.5,566.5C 340.167,566.5 334.833,566.5 329.5,566.5C 327.502,565.852 325.502,565.019 323.5,564C 327.06,562.763 330.727,562.263 334.5,562.5 Z"/></g>
<g><path style="opacity:1" fill="#746327" d="M 859.5,562.5 C 862.167,562.5 864.833,562.5 867.5,562.5C 867.5,563.5 867.5,564.5 867.5,565.5C 861.203,566.32 854.869,566.653 848.5,566.5C 852.647,565.675 856.981,565.175 861.5,565C 861.833,564.667 862.167,564.333 862.5,564C 861.263,563.768 860.263,563.268 859.5,562.5 Z"/></g>
<g><path style="opacity:1" fill="#84702c" d="M 741.5,564.5 C 742.873,564.343 744.207,564.51 745.5,565C 744.263,565.232 743.263,565.732 742.5,566.5C 728.516,567.353 714.516,568.019 700.5,568.5C 714.182,567.282 727.849,565.949 741.5,564.5 Z"/></g>
<g><path style="opacity:1" fill="#161202" d="M 914.5,147.5 C 915.167,149.5 915.833,151.5 916.5,153.5C 916.5,449.5 916.5,745.5 916.5,1041.5C 916.167,1041.5 915.833,1041.5 915.5,1041.5C 915.828,743.488 915.495,445.488 914.5,147.5 Z"/></g>
<g><path style="opacity:1" fill="#968032" d="M 558.5,572.5 C 563.5,572.5 568.5,572.5 573.5,572.5C 573.737,573.791 573.404,574.791 572.5,575.5C 568.087,573.862 563.421,572.862 558.5,572.5 Z"/></g>
<g><path style="opacity:1" fill="#3a3216" d="M 643.5,571.5 C 636.077,573.255 628.411,573.921 620.5,573.5C 627.989,572.487 635.656,571.82 643.5,571.5 Z"/></g>
<g><path style="opacity:1" fill="#645521" d="M 509.5,586.5 C 510.376,586.369 511.043,586.702 511.5,587.5C 480.035,594.368 448.701,601.534 417.5,609C 426.593,605.414 435.927,602.414 445.5,600C 466.928,594.8 488.262,590.3 509.5,586.5 Z"/></g>
<g><path style="opacity:1" fill="#776628" d="M 774.5,598.5 C 773.732,597.737 773.232,596.737 773,595.5C 772.517,596.448 772.351,597.448 772.5,598.5C 771.207,596.636 771.207,594.636 772.5,592.5C 774.086,594.173 774.753,596.173 774.5,598.5 Z"/></g>
<g><path style="opacity:1" fill="#6c5d24" d="M 584.5,586.5 C 584.56,585.957 584.893,585.624 585.5,585.5C 586.487,588.768 586.82,592.102 586.5,595.5C 585.833,592.5 585.167,589.5 584.5,586.5 Z"/></g>
<g><path style="opacity:1" fill="#6e5e25" d="M 774.5,598.5 C 776.288,598.215 777.955,598.548 779.5,599.5C 778.995,600.919 777.995,601.585 776.5,601.5C 776.611,600.883 776.944,600.383 777.5,600C 776.263,599.768 775.263,599.268 774.5,598.5 Z"/></g>
<g><path style="opacity:1" fill="#a88f38" d="M 414.5,593.5 C 416.852,594.952 417.185,596.952 415.5,599.5C 416.263,600.719 417.263,601.719 418.5,602.5C 417.311,603.429 415.978,603.762 414.5,603.5C 414.565,606.471 413.731,609.138 412,611.5C 411.259,608.438 411.425,605.438 412.5,602.5C 406.842,599.829 407.175,598.496 413.5,598.5C 413.629,596.784 413.962,595.117 414.5,593.5 Z"/></g>
<g><path style="opacity:1" fill="#615320" d="M 676.5,586.5 C 698.639,590.161 720.639,594.661 742.5,600C 752.073,602.414 761.407,605.414 770.5,609C 740.391,601.71 710.058,595.043 679.5,589C 677.881,588.764 676.881,587.931 676.5,586.5 Z"/></g>
<g><path style="opacity:1" fill="#615320" d="M 342.5,602.5 C 341.519,597.249 340.519,597.249 339.5,602.5C 337.517,602.157 336.183,602.824 335.5,604.5C 333.972,604.483 333.472,603.816 334,602.5C 335.356,601.62 336.856,601.286 338.5,601.5C 338.244,599.088 339.244,597.421 341.5,596.5C 342.466,598.396 342.799,600.396 342.5,602.5 Z"/></g>
<g><path style="opacity:1" fill="#5a4e1c" d="M 848.5,598.5 C 847.883,598.389 847.383,598.056 847,597.5C 846.802,599.382 846.302,601.048 845.5,602.5C 845.5,600.5 845.5,598.5 845.5,596.5C 847.179,596.285 848.179,596.952 848.5,598.5 Z"/></g>
<g><path style="opacity:1" fill="#51451b" d="M 848.5,598.5 C 849.404,599.209 849.737,600.209 849.5,601.5C 851.099,601.232 852.432,601.566 853.5,602.5C 851.833,602.5 850.167,602.5 848.5,602.5C 848.5,601.167 848.5,599.833 848.5,598.5 Z"/></g>
<g><path style="opacity:1" fill="#d9ba49" d="M 695.5,621.5 C 695.158,622.338 694.492,622.672 693.5,622.5C 679.818,616.15 667.485,607.816 656.5,597.5C 657,597.167 657.5,596.833 658,596.5C 671.482,603.505 683.982,611.838 695.5,621.5 Z"/></g>
<g><path style="opacity:1" fill="#d9ba49" d="M 342.5,602.5 C 345.764,602.726 346.764,604.226 345.5,607C 344.207,607.49 342.873,607.657 341.5,607.5C 341.949,609.977 341.283,611.977 339.5,613.5C 338.52,610.914 338.187,608.247 338.5,605.5C 337.209,605.737 336.209,605.404 335.5,604.5C 336.183,602.824 337.517,602.157 339.5,602.5C 340.519,597.249 341.519,597.249 342.5,602.5 Z"/></g>
<g><path style="opacity:1" fill="#dfbf4b" d="M 848.5,598.5 C 848.5,599.833 848.5,601.167 848.5,602.5C 850.167,602.5 851.833,602.5 853.5,602.5C 853.306,604.912 851.973,605.912 849.5,605.5C 849.813,608.247 849.48,610.914 848.5,613.5C 847.893,613.376 847.56,613.043 847.5,612.5C 847.5,610.5 847.5,608.5 847.5,606.5C 845.833,606.5 844.167,606.5 842.5,606.5C 841.366,604.04 842.366,602.707 845.5,602.5C 846.302,601.048 846.802,599.382 847,597.5C 847.383,598.056 847.883,598.389 848.5,598.5 Z"/></g>
<g><path style="opacity:1" fill="#b0973b" d="M 774.5,598.5 C 775.263,599.268 776.263,599.768 777.5,600C 776.944,600.383 776.611,600.883 776.5,601.5C 776.817,604.572 776.484,607.572 775.5,610.5C 774.365,608.293 773.699,605.96 773.5,603.5C 772.022,603.762 770.689,603.429 769.5,602.5C 771.288,601.717 772.288,600.384 772.5,598.5C 772.351,597.448 772.517,596.448 773,595.5C 773.232,596.737 773.732,597.737 774.5,598.5 Z"/></g>
<g><path style="opacity:1" fill="#dfbf4b" d="M 499.5,619.5 C 498.761,619.631 498.094,619.464 497.5,619C 498.381,618.292 499.047,617.458 499.5,616.5C 508.773,608.748 518.773,601.915 529.5,596C 530.635,595.251 531.635,595.417 532.5,596.5C 522.886,606.107 511.886,613.774 499.5,619.5 Z"/></g>
<g><path style="opacity:1" fill="#7b6929" d="M 842.5,606.5 C 844.167,606.5 845.833,606.5 847.5,606.5C 847.5,608.5 847.5,610.5 847.5,612.5C 846.549,611.081 846.216,609.415 846.5,607.5C 844.901,607.768 843.568,607.434 842.5,606.5 Z"/></g>
<g><path style="opacity:1" fill="#c9a525" d="M 283.5,478.5 C 283.5,564.5 283.5,650.5 283.5,736.5C 282.51,730.69 282.177,724.69 282.5,718.5C 282.667,640.499 282.5,562.499 282,484.5C 281.667,493.167 281.333,501.833 281,510.5C 280.667,503.5 280.333,496.5 280,489.5C 279.833,542.335 279.333,595.002 278.5,647.5C 278.5,579.167 278.5,510.833 278.5,442.5C 279.331,430.34 279.831,418.007 280,405.5C 280.333,411.833 280.667,418.167 281,424.5C 281.333,418.5 281.667,412.5 282,406.5C 282.168,430.67 282.668,454.67 283.5,478.5 Z"/></g>
<g><path style="opacity:1" fill="#706025" d="M 686.5,596.5 C 686.56,595.957 686.893,595.624 687.5,595.5C 712.359,608.331 737.026,621.665 761.5,635.5C 761.167,635.833 760.833,636.167 760.5,636.5C 735.519,623.677 710.852,610.344 686.5,596.5 Z"/></g>
<g><path style="opacity:1" fill="#f9d855" d="M 298.5,346.5 C 299.666,513.333 299.833,680.333 299,847.5C 298.023,848.774 297.189,848.774 296.5,847.5C 296.333,681.166 296.5,514.833 297,348.5C 297.278,347.584 297.778,346.918 298.5,346.5 Z"/></g>
<g><path style="opacity:1" fill="#ad943a" d="M 499.5,616.5 C 499.047,617.458 498.381,618.292 497.5,619C 498.094,619.464 498.761,619.631 499.5,619.5C 495.535,621.818 491.535,624.152 487.5,626.5C 487.5,625.833 487.5,625.167 487.5,624.5C 491.246,621.415 495.246,618.749 499.5,616.5 Z"/></g>
<g><path style="opacity:1" fill="#b49a3c" d="M 587.5,611.5 C 589.246,619.933 589.912,628.6 589.5,637.5C 588.488,629.009 587.821,620.343 587.5,611.5 Z"/></g>
<g><path style="opacity:1" fill="#493e1a" d="M 601.5,607.5 C 601.331,622.705 600.331,637.705 598.5,652.5C 598.748,637.3 599.748,622.3 601.5,607.5 Z"/></g>
<g><path style="opacity:1" fill="#6f5f25" d="M 499.5,595.5 C 500.376,595.369 501.043,595.702 501.5,596.5C 477.184,610.327 452.517,623.661 427.5,636.5C 427.167,636.167 426.833,635.833 426.5,635.5C 450.872,622.102 475.206,608.769 499.5,595.5 Z"/></g>
<g><path style="opacity:1" fill="#756427" d="M 695.5,621.5 C 698.778,622.809 701.778,624.642 704.5,627C 705.711,627.893 705.711,628.726 704.5,629.5C 700.938,626.892 697.271,624.559 693.5,622.5C 694.492,622.672 695.158,622.338 695.5,621.5 Z"/></g>
<g><path style="opacity:1" fill="#756427" d="M 425.5,656.5 C 424.833,656.5 424.5,656.167 424.5,655.5C 443.628,641.431 462.961,627.597 482.5,614C 484.402,612.699 486.402,612.032 488.5,612C 467.621,627.053 446.621,641.886 425.5,656.5 Z"/></g>
<g><path style="opacity:1" fill="#5c4e1f" d="M 487.5,624.5 C 487.5,625.167 487.5,625.833 487.5,626.5C 486.335,628.416 484.668,629.249 482.5,629C 484.037,627.293 485.704,625.793 487.5,624.5 Z"/></g>
<g><path style="opacity:1" fill="#796828" d="M 393.5,643.5 C 394.183,645.176 395.517,645.843 397.5,645.5C 394.713,646.477 391.713,646.81 388.5,646.5C 388.326,649.874 387.826,653.207 387,656.5C 384.457,653.251 382.291,649.751 380.5,646C 376.789,645.825 373.122,645.325 369.5,644.5C 371.828,641.34 374.661,638.673 378,636.5C 376.992,624.156 379.659,622.822 386,632.5C 387.94,629.598 390.44,628.598 393.5,629.5C 392.877,631.711 391.877,633.711 390.5,635.5C 389.749,634.624 389.249,633.624 389,632.5C 385.695,635.209 383.028,634.543 381,630.5C 380.667,632.833 380.333,635.167 380,637.5C 378.442,639.359 376.609,640.859 374.5,642C 376.715,643.044 379.048,643.71 381.5,644C 382.874,646.583 384.374,649.083 386,651.5C 385.975,646.361 388.475,643.694 393.5,643.5 Z"/></g>
<g><path style="opacity:1" fill="#716126" d="M 699.5,612.5 C 700.251,611.427 701.251,611.26 702.5,612C 726.031,627.932 749.031,644.599 771.5,662C 768.701,661.268 766.034,659.934 763.5,658C 742.313,642.578 720.98,627.412 699.5,612.5 Z"/></g>
<g><path style="opacity:1" fill="#685923" d="M 371.5,633.5 C 372.873,633.343 374.207,633.51 375.5,634C 373.06,635.303 370.56,636.47 368,637.5C 367.5,637.167 367,636.833 366.5,636.5C 368.145,635.304 369.811,634.304 371.5,633.5 Z"/></g>
<g><path style="opacity:1" fill="#dabb49" d="M 541.5,661.5 C 540.566,660.432 540.232,659.099 540.5,657.5C 545.728,646.434 552.728,636.6 561.5,628C 562.332,627.312 562.998,627.479 563.5,628.5C 556.892,640.085 549.559,651.085 541.5,661.5 Z"/></g>
<g><path style="opacity:1" fill="#daba49" d="M 648.5,658.5 C 648.715,660.179 648.048,661.179 646.5,661.5C 638.301,650.944 630.967,639.777 624.5,628C 624.85,626.743 625.517,626.409 626.5,627C 635.444,636.393 642.777,646.893 648.5,658.5 Z"/></g>
<g><path style="opacity:1" fill="#85722c" d="M 812.5,645.5 C 811.89,644.609 811.557,643.609 811.5,642.5C 812.239,642.631 812.906,642.464 813.5,642C 811.759,640.38 809.925,638.88 808,637.5C 807.667,635.167 807.333,632.833 807,630.5C 804.972,634.543 802.305,635.209 799,632.5C 798.751,633.624 798.251,634.624 797.5,635.5C 792.859,626.868 794.359,625.535 802,631.5C 803.867,628.786 806.367,627.119 809.5,626.5C 809.337,628.857 809.503,631.19 810,633.5C 818.502,636.876 818.336,637.71 809.5,636C 812.979,638.312 815.979,641.146 818.5,644.5C 816.604,645.466 814.604,645.799 812.5,645.5 Z"/></g>
<g><path style="opacity:1" fill="#9e8835" d="M 397.5,645.5 C 395.517,645.843 394.183,645.176 393.5,643.5C 389.755,635.795 390.921,635.462 397,642.5C 397.483,643.448 397.649,644.448 397.5,645.5 Z"/></g>
<g><path style="opacity:1" fill="#978233" d="M 800.5,646.5 C 800.737,647.791 800.404,648.791 799.5,649.5C 799.67,648.178 799.337,647.011 798.5,646C 795.854,645.503 793.187,645.336 790.5,645.5C 791.288,642.03 793.288,639.363 796.5,637.5C 796.833,637.833 797.167,638.167 797.5,638.5C 796.5,639.833 795.5,641.167 794.5,642.5C 797.155,642.975 799.155,644.309 800.5,646.5 Z"/></g>
<g><path style="opacity:1" fill="#7c6a29" d="M 667.5,612.5 C 667.56,611.957 667.893,611.624 668.5,611.5C 692.464,632.144 716.798,652.31 741.5,672C 740.092,672.315 738.759,671.982 737.5,671C 713.416,652.418 690.083,632.918 667.5,612.5 Z"/></g>
<g><path style="opacity:1" fill="#7f6d2a" d="M 455.5,666.5 C 454.833,666.5 454.5,666.167 454.5,665.5C 476.147,647.523 497.814,629.523 519.5,611.5C 517.058,615.489 513.725,619.323 509.5,623C 492.018,638.228 474.018,652.728 455.5,666.5 Z"/></g>
<g><path style="opacity:1" fill="#5d4f1f" d="M 811.5,642.5 C 811.557,643.609 811.89,644.609 812.5,645.5C 810.712,645.215 809.045,645.548 807.5,646.5C 805.582,650.004 803.416,653.337 801,656.5C 800.023,654.26 799.523,651.927 799.5,649.5C 800.404,648.791 800.737,647.791 800.5,646.5C 801.302,647.952 801.802,649.618 802,651.5C 803.779,646.884 806.946,643.884 811.5,642.5 Z"/></g>
<g><path style="opacity:1" fill="#403716" d="M 424.5,655.5 C 424.5,656.167 424.833,656.5 425.5,656.5C 423.044,659.387 420.044,661.221 416.5,662C 419.014,659.585 421.681,657.419 424.5,655.5 Z"/></g>
<g><path style="opacity:1" fill="#9e8735" d="M 540.5,657.5 C 540.232,659.099 540.566,660.432 541.5,661.5C 538.555,666.286 535.388,670.952 532,675.5C 531.107,676.711 530.274,676.711 529.5,675.5C 533.694,669.77 537.361,663.77 540.5,657.5 Z"/></g>
<g><path style="opacity:1" fill="#968033" d="M 648.5,658.5 C 651.977,664.459 655.144,670.459 658,676.5C 653.673,671.83 649.84,666.83 646.5,661.5C 648.048,661.179 648.715,660.179 648.5,658.5 Z"/></g>
<g><path style="opacity:1" fill="#695a23" d="M 791.5,662.5 C 794.93,664.104 797.43,666.437 799,669.5C 797.167,668.333 795.333,667.167 793.5,666C 792.177,665.184 791.511,664.017 791.5,662.5 Z"/></g>
<g><path style="opacity:1" fill="#aa8708" d="M 907.5,940.5 C 907.5,855.833 907.5,771.167 907.5,686.5C 908.327,691.651 908.827,696.984 909,702.5C 909.333,690.833 909.667,679.167 910,667.5C 910.667,761.5 910.667,855.5 910,949.5C 909.667,945.167 909.333,940.833 909,936.5C 908.79,938.058 908.29,939.391 907.5,940.5 Z"/></g>
<g><path style="opacity:1" fill="#806d2b" d="M 494.5,702.5 C 493.833,702.5 493.5,702.167 493.5,701.5C 509.868,679.956 527.201,659.123 545.5,639C 546.167,638.333 546.833,638.333 547.5,639C 529.622,660.04 511.955,681.206 494.5,702.5 Z"/></g>
<g><path style="opacity:1" fill="#4a3f18" d="M 454.5,665.5 C 454.5,666.167 454.833,666.5 455.5,666.5C 452.856,668.969 450.023,671.302 447,673.5C 446.333,672.833 446.333,672.167 447,671.5C 449.663,669.666 452.163,667.666 454.5,665.5 Z"/></g>
<g><path style="opacity:1" fill="#443b17" d="M 386.5,682.5 C 385.167,682.5 383.833,682.5 382.5,682.5C 382.5,677.833 382.5,673.167 382.5,668.5C 384.649,667.252 386.649,665.752 388.5,664C 389.332,663.312 389.998,663.479 390.5,664.5C 388.424,666.288 386.257,667.954 384,669.5C 383.501,673.486 383.334,677.486 383.5,681.5C 384.791,681.263 385.791,681.596 386.5,682.5 Z"/></g>
<g><path style="opacity:1" fill="#8b772f" d="M 819.5,682.5 C 814.833,682.5 810.167,682.5 805.5,682.5C 805.169,675.137 805.503,667.803 806.5,660.5C 807.497,667.468 807.83,674.468 807.5,681.5C 811.702,681.183 815.702,681.517 819.5,682.5 Z"/></g>
<g><path style="opacity:1" fill="#786628" d="M 640.5,639.5 C 640.897,638.475 641.563,638.308 642.5,639C 662.737,661 681.904,683.834 700,707.5C 701.289,709.055 701.956,710.721 702,712.5C 681.635,687.976 661.135,663.643 640.5,639.5 Z"/></g>
<g><path style="opacity:1" fill="#806d2a" d="M 598.5,652.5 C 598.758,663.376 598.091,674.042 596.5,684.5C 596.512,673.641 597.179,662.974 598.5,652.5 Z"/></g>
<g><path style="opacity:1" fill="#9d8735" d="M 382.5,668.5 C 382.5,673.167 382.5,677.833 382.5,682.5C 383.833,682.5 385.167,682.5 386.5,682.5C 387.833,682.833 389.167,683.167 390.5,683.5C 388.052,684.473 385.385,684.806 382.5,684.5C 382.5,687.5 382.5,690.5 382.5,693.5C 382.44,694.043 382.107,694.376 381.5,694.5C 380.513,691.232 380.18,687.898 380.5,684.5C 376.167,684.5 371.833,684.5 367.5,684.5C 367.5,683.5 367.5,682.5 367.5,681.5C 371.833,681.5 376.167,681.5 380.5,681.5C 380.17,674.468 380.503,667.468 381.5,660.5C 382.48,663.086 382.813,665.753 382.5,668.5 Z"/></g>
<g><path style="opacity:1" fill="#ab9239" d="M 805.5,682.5 C 810.167,682.5 814.833,682.5 819.5,682.5C 820.043,682.56 820.376,682.893 820.5,683.5C 816.217,684.492 811.884,684.826 807.5,684.5C 806.833,697.833 806.167,697.833 805.5,684.5C 794.833,683.833 794.833,683.167 805.5,682.5 Z"/></g>
<g><path style="opacity:1" fill="#9f800d" d="M 924.5,152.5 C 925.833,448.833 925.833,745.167 924.5,1041.5C 924.831,1017.99 924.498,994.661 923.5,971.5C 923.667,852.5 923.5,733.5 923,614.5C 921.933,615.191 920.766,615.691 919.5,616C 920.833,617.84 920.666,618.34 919,617.5C 918.333,737.167 918.333,856.833 919,976.5C 920.414,975.587 921.914,975.587 923.5,976.5C 923.666,983.841 923.5,991.174 923,998.5C 921.89,996.963 920.39,996.297 918.5,996.5C 917.605,1004.31 916.938,1019.31 916.5,1041.5C 916.5,745.5 916.5,449.5 916.5,153.5C 916.833,153.5 917.167,153.5 917.5,153.5C 917.5,275.833 917.5,398.167 917.5,520.5C 917.333,550.502 917.5,580.502 918,610.5C 918.333,595.167 918.667,579.833 919,564.5C 922.93,563.031 923.097,561.864 919.5,561C 920.766,560.691 921.933,560.191 923,559.5C 923.333,576.167 923.667,592.833 924,609.5C 924.5,580.502 924.667,551.502 924.5,522.5C 924.5,399.833 924.5,277.167 924.5,154.5C 924.5,153.833 924.5,153.167 924.5,152.5 Z"/></g>
<g><path style="opacity:1" fill="#aa8709" d="M 923.5,971.5 C 923.5,973.167 923.5,974.833 923.5,976.5C 921.914,975.587 920.414,975.587 919,976.5C 918.333,856.833 918.333,737.167 919,617.5C 920.666,618.34 920.833,617.84 919.5,616C 920.766,615.691 921.933,615.191 923,614.5C 923.5,733.5 923.667,852.5 923.5,971.5 Z"/></g>
<g><path style="opacity:1" fill="#c69f15" d="M 924.5,522.5 C 924.667,551.502 924.5,580.502 924,609.5C 923.667,592.833 923.333,576.167 923,559.5C 921.933,560.191 920.766,560.691 919.5,561C 923.097,561.864 922.93,563.031 919,564.5C 918.667,579.833 918.333,595.167 918,610.5C 917.5,580.502 917.333,550.502 917.5,520.5C 918.329,512.677 918.829,504.677 919,496.5C 920.11,494.963 921.61,494.297 923.5,494.5C 923.173,504.015 923.506,513.348 924.5,522.5 Z"/></g>
<g><path style="opacity:1" fill="#d6ae1f" d="M 917.5,153.5 C 918.897,160.48 920.731,167.48 923,174.5C 923.172,167.654 923.672,160.987 924.5,154.5C 924.5,277.167 924.5,399.833 924.5,522.5C 923.506,513.348 923.173,504.015 923.5,494.5C 921.61,494.297 920.11,494.963 919,496.5C 918.829,504.677 918.329,512.677 917.5,520.5C 917.5,398.167 917.5,275.833 917.5,153.5 Z"/></g>
<g><path style="opacity:1" fill="#aa880e" d="M 911.5,176.5 C 912.833,456.5 912.833,736.5 911.5,1016.5C 911.666,1007.16 911.5,997.827 911,988.5C 910.667,992.833 910.333,997.167 910,1001.5C 909.764,999.881 908.931,998.881 907.5,998.5C 907.5,979.167 907.5,959.833 907.5,940.5C 908.29,939.391 908.79,938.058 909,936.5C 909.333,940.833 909.667,945.167 910,949.5C 910.667,855.5 910.667,761.5 910,667.5C 909.667,679.167 909.333,690.833 909,702.5C 908.827,696.984 908.327,691.651 907.5,686.5C 907.5,633.167 907.5,579.833 907.5,526.5C 908.79,525.942 909.623,524.942 910,523.5C 910.333,528.5 910.667,533.5 911,538.5C 911.5,417.834 911.667,297.167 911.5,176.5 Z"/></g>
<g><path style="opacity:1" fill="#8e792f" d="M 751.5,688.5 C 751.672,687.508 751.338,686.842 750.5,686.5C 751.368,684.375 752.368,684.209 753.5,686C 753.361,687.301 752.695,688.134 751.5,688.5 Z"/></g>
<g><path style="opacity:1" fill="#3a3213" d="M 390.5,683.5 C 391.043,683.56 391.376,683.893 391.5,684.5C 388.914,685.48 386.247,685.813 383.5,685.5C 383.806,688.385 383.473,691.052 382.5,693.5C 382.5,690.5 382.5,687.5 382.5,684.5C 385.385,684.806 388.052,684.473 390.5,683.5 Z"/></g>
<g><path style="opacity:1" fill="#665722" d="M 615.5,648.5 C 616.077,647.227 616.743,647.227 617.5,648.5C 618.154,650.115 618.654,651.782 619,653.5C 624.581,682.745 630.914,711.745 638,740.5C 628.276,710.272 620.776,679.605 615.5,648.5 Z"/></g>
<g><path style="opacity:1" fill="#a68e38" d="M 443.5,681.5 C 444.097,681.735 444.43,682.235 444.5,683C 443.047,685.405 441.713,687.905 440.5,690.5C 442.447,692.276 442.78,694.276 441.5,696.5C 439.952,693.049 437.952,692.716 435.5,695.5C 435.167,695.167 434.833,694.833 434.5,694.5C 437.091,691.604 437.091,688.771 434.5,686C 434.833,685.5 435.167,685 435.5,684.5C 436.814,685.313 437.981,686.313 439,687.5C 440.332,685.34 441.832,683.34 443.5,681.5 Z"/></g>
<g><path style="opacity:1" fill="#6e5e25" d="M 625.5,657.5 C 640.075,680.97 653.408,705.303 665.5,730.5C 665.167,730.833 664.833,731.167 664.5,731.5C 650.945,707.053 637.945,682.386 625.5,657.5 Z"/></g>
<g><path style="opacity:1" fill="#8c782f" d="M 590.5,660.5 C 592.05,675.305 592.716,690.305 592.5,705.5C 591.306,690.68 590.64,675.68 590.5,660.5 Z"/></g>
<g><path style="opacity:1" fill="#a38b37" d="M 750.5,686.5 C 751.338,686.842 751.672,687.508 751.5,688.5C 751.586,690.677 752.253,692.677 753.5,694.5C 753.167,694.833 752.833,695.167 752.5,695.5C 750.048,692.716 748.048,693.049 746.5,696.5C 746.167,696 745.833,695.5 745.5,695C 746.167,693.333 746.833,691.667 747.5,690C 746.084,687.165 744.417,684.498 742.5,682C 742.85,680.743 743.517,680.409 744.5,681C 746,683.167 747.5,685.333 749,687.5C 749.383,686.944 749.883,686.611 750.5,686.5 Z"/></g>
<g><path style="opacity:1" fill="#9c8635" d="M 768.5,698.5 C 772.472,699.479 775.139,701.812 776.5,705.5C 775.325,705.719 774.325,705.386 773.5,704.5C 771.469,702.69 769.802,700.69 768.5,698.5 Z"/></g>
<g><path style="opacity:1" fill="#b2983c" d="M 412.5,698.5 C 413.239,698.369 413.906,698.536 414.5,699C 412.317,701.35 409.984,703.517 407.5,705.5C 406.417,704.635 406.251,703.635 407,702.5C 409.015,701.303 410.849,699.97 412.5,698.5 Z"/></g>
<g><path style="opacity:1" fill="#6d5d24" d="M 561.5,657.5 C 562.239,657.369 562.906,657.536 563.5,658C 549.858,682.785 536.358,707.618 523,732.5C 525.444,724.595 528.778,716.928 533,709.5C 542.766,692.3 552.266,674.967 561.5,657.5 Z"/></g>
<g><path style="opacity:1" fill="#625421" d="M 570.5,647.5 C 571.152,648.449 571.486,649.615 571.5,651C 566.774,681.404 559.607,711.237 550,740.5C 550.041,737.196 550.374,733.863 551,730.5C 559.2,703.213 565.7,675.547 570.5,647.5 Z"/></g>
<g><path style="opacity:1" fill="#4a3f19" d="M 493.5,701.5 C 493.5,702.167 493.833,702.5 494.5,702.5C 491.842,705.803 489.175,709.136 486.5,712.5C 485.479,711.998 485.312,711.332 486,710.5C 488.364,707.31 490.864,704.31 493.5,701.5 Z"/></g>
<g><path style="opacity:1" fill="#e0b933" d="M 282.5,718.5 C 281.106,743.164 279.773,767.831 278.5,792.5C 278.5,744.167 278.5,695.833 278.5,647.5C 279.333,595.002 279.833,542.335 280,489.5C 280.333,496.5 280.667,503.5 281,510.5C 281.333,501.833 281.667,493.167 282,484.5C 282.5,562.499 282.667,640.499 282.5,718.5 Z"/></g>
<g><path style="opacity:1" fill="#766527" d="M 685.5,732.5 C 685.5,733.167 685.167,733.5 684.5,733.5C 669.352,713.214 654.685,692.547 640.5,671.5C 641.274,670.289 642.107,670.289 643,671.5C 657.176,691.862 671.343,712.196 685.5,732.5 Z"/></g>
<g><path style="opacity:1" fill="#6d5d25" d="M 545.5,670.5 C 547.028,670.517 547.528,671.184 547,672.5C 531.404,696.027 515.07,719.027 498,741.5C 497.282,742.451 496.449,742.617 495.5,742C 512.801,718.545 529.468,694.712 545.5,670.5 Z"/></g>
<g><path style="opacity:1" fill="#a58d37" d="M 710.5,713.5 C 713.489,714.814 716.489,716.147 719.5,717.5C 725.124,715.552 726.124,716.385 722.5,720C 724.616,721.171 725.282,722.671 724.5,724.5C 722.668,723.752 721.001,722.752 719.5,721.5C 718.032,723.333 716.365,723.666 714.5,722.5C 714.977,721.522 715.643,720.689 716.5,720C 714.101,718.02 712.101,715.853 710.5,713.5 Z"/></g>
<g><path style="opacity:1" fill="#a68e38" d="M 475.5,713.5 C 477.028,713.517 477.528,714.184 477,715.5C 474.876,716.622 473.043,718.122 471.5,720C 473.559,721.185 473.726,722.352 472,723.5C 470.715,723.05 469.548,722.383 468.5,721.5C 466.684,723.441 464.684,724.108 462.5,723.5C 463.313,722.186 464.313,721.019 465.5,720C 464.5,719 463.5,718 462.5,717C 464.669,716.571 466.669,717.071 468.5,718.5C 471.077,717.057 473.41,715.39 475.5,713.5 Z"/></g>
<g><path style="opacity:1" fill="#85722d" d="M 424.5,729.5 C 423.127,729.343 421.793,729.51 420.5,730C 419.295,731.376 417.962,732.542 416.5,733.5C 417.72,728.902 420.387,727.568 424.5,729.5 Z"/></g>
<g><path style="opacity:1" fill="#e8c64e" d="M 424.5,729.5 C 428.056,731.087 429.222,733.754 428,737.5C 409.629,754.042 391.129,770.375 372.5,786.5C 371.761,786.631 371.094,786.464 370.5,786C 371.252,785.329 371.586,784.496 371.5,783.5C 386.529,766.808 401.529,750.141 416.5,733.5C 417.962,732.542 419.295,731.376 420.5,730C 421.793,729.51 423.127,729.343 424.5,729.5 Z"/></g>
<g><path style="opacity:1" fill="#e9c84e" d="M 809.5,777.5 C 809.703,779.044 810.37,780.378 811.5,781.5C 810.3,782.292 808.967,782.292 807.5,781.5C 797.173,772.506 787.173,763.172 777.5,753.5C 776.415,751.413 774.749,750.08 772.5,749.5C 768.143,745.308 763.643,741.308 759,737.5C 757.676,730.495 760.51,727.995 767.5,730C 781.359,746.021 795.359,761.855 809.5,777.5 Z"/></g>
<g><path style="opacity:1" fill="#473d18" d="M 685.5,732.5 C 688.178,735.332 690.512,738.499 692.5,742C 691.551,742.617 690.718,742.451 690,741.5C 688.404,738.631 686.57,735.964 684.5,733.5C 685.167,733.5 685.5,733.167 685.5,732.5 Z"/></g>
<g><path style="opacity:1" fill="#7f6d2b" d="M 561.5,744.5 C 560.167,743.833 558.833,743.167 557.5,742.5C 560.527,741.491 563.527,741.491 566.5,742.5C 564.978,743.562 563.312,744.229 561.5,744.5 Z"/></g>
<g><path style="opacity:1" fill="#766528" d="M 630.5,742.5 C 629.167,743.167 627.833,743.833 626.5,744.5C 624.335,744.884 622.668,744.217 621.5,742.5C 624.473,741.491 627.473,741.491 630.5,742.5 Z"/></g>
<g><path style="opacity:1" fill="#a78f38" d="M 557.5,742.5 C 558.833,743.167 560.167,743.833 561.5,744.5C 559.883,745.589 559.05,747.256 559,749.5C 558.08,747.686 556.58,746.686 554.5,746.5C 552.091,747.37 549.758,747.37 547.5,746.5C 549.647,744.337 552.314,743.337 555.5,743.5C 555.281,742.325 555.614,741.325 556.5,740.5C 557.298,740.957 557.631,741.624 557.5,742.5 Z"/></g>
<g><path style="opacity:1" fill="#9a8434" d="M 626.5,744.5 C 627.833,743.833 629.167,743.167 630.5,742.5C 630.369,741.624 630.702,740.957 631.5,740.5C 632.386,741.325 632.719,742.325 632.5,743.5C 635.686,743.337 638.353,744.337 640.5,746.5C 637.546,747.147 634.546,747.314 631.5,747C 628.722,751.77 627.722,751.603 628.5,746.5C 628.145,745.478 627.478,744.811 626.5,744.5 Z"/></g>
<g><path style="opacity:1" fill="#978133" d="M 772.5,749.5 C 774.749,750.08 776.415,751.413 777.5,753.5C 775.251,752.92 773.585,751.587 772.5,749.5 Z"/></g>
<g><path style="opacity:1" fill="#b79d3e" d="M 462.5,749.5 C 463.043,749.56 463.376,749.893 463.5,750.5C 462.248,752.001 461.248,753.668 460.5,755.5C 459.675,756.386 458.675,756.719 457.5,756.5C 458.702,753.944 460.369,751.611 462.5,749.5 Z"/></g>
<g><path style="opacity:1" fill="#ab923a" d="M 718.5,748.5 C 720.463,749.96 722.296,751.627 724,753.5C 724.749,754.635 724.583,755.635 723.5,756.5C 721.023,754.353 719.356,751.686 718.5,748.5 Z"/></g>
<g><path style="opacity:1" fill="#a48c37" d="M 672.5,761.5 C 674.048,761.821 674.715,762.821 674.5,764.5C 673.209,764.263 672.209,764.596 671.5,765.5C 670.185,766.476 668.852,767.476 667.5,768.5C 667.167,768.167 666.833,767.833 666.5,767.5C 668.188,765.146 670.188,763.146 672.5,761.5 Z"/></g>
<g><path style="opacity:1" fill="#655722" d="M 517.5,783.5 C 516.167,783.5 514.833,783.5 513.5,783.5C 513.66,781.801 513.494,780.134 513,778.5C 508.917,776.543 505.083,774.21 501.5,771.5C 505.072,770.294 508.738,769.627 512.5,769.5C 512.5,766.5 512.5,763.5 512.5,760.5C 516.313,761.63 519.313,763.963 521.5,767.5C 521.167,767.833 520.833,768.167 520.5,768.5C 519.167,767.5 517.833,766.5 516.5,765.5C 515.594,767.386 514.594,769.22 513.5,771C 511.285,771.17 509.285,771.837 507.5,773C 509.917,774.626 512.417,776.126 515,777.5C 515.24,779.852 516.073,781.852 517.5,783.5 Z"/></g>
<g><path style="opacity:1" fill="#8c782f" d="M 513.5,783.5 C 514.833,783.5 516.167,783.5 517.5,783.5C 519.904,779.368 523.571,777.368 528.5,777.5C 524.297,775.579 523.631,772.912 526.5,769.5C 525.5,768.833 524.5,768.167 523.5,767.5C 531.626,764.418 532.626,766.085 526.5,772.5C 528.008,774.507 529.842,776.174 532,777.5C 532.483,778.448 532.649,779.448 532.5,780.5C 528.774,780.177 525.107,780.511 521.5,781.5C 519.5,784.167 517.167,786.5 514.5,788.5C 513.548,786.955 513.215,785.288 513.5,783.5 Z"/></g>
<g><path style="opacity:1" fill="#8b772f" d="M 670.5,783.5 C 671.833,783.5 673.167,783.5 674.5,783.5C 674.785,785.288 674.452,786.955 673.5,788.5C 670.833,786.5 668.5,784.167 666.5,781.5C 662.893,780.511 659.226,780.177 655.5,780.5C 655.351,779.448 655.517,778.448 656,777.5C 657.78,775.707 659.613,774.04 661.5,772.5C 655.457,765.82 656.457,764.32 664.5,768C 663.376,768.249 662.376,768.749 661.5,769.5C 662.5,770.833 663.5,772.167 664.5,773.5C 662.684,774.815 661.017,776.315 659.5,778C 664.496,777.38 668.163,779.213 670.5,783.5 Z"/></g>
<g><path style="opacity:1" fill="#5c4f1f" d="M 672.5,761.5 C 673.209,760.596 674.209,760.263 675.5,760.5C 675.5,763.5 675.5,766.5 675.5,769.5C 679.228,769.795 682.895,770.461 686.5,771.5C 683.163,774.171 679.496,776.337 675.5,778C 674.594,779.699 674.261,781.533 674.5,783.5C 673.167,783.5 671.833,783.5 670.5,783.5C 671.927,781.852 672.76,779.852 673,777.5C 675.583,776.126 678.083,774.626 680.5,773C 678.608,772.027 676.608,771.36 674.5,771C 673.391,769.124 672.391,767.291 671.5,765.5C 672.209,764.596 673.209,764.263 674.5,764.5C 674.715,762.821 674.048,761.821 672.5,761.5 Z"/></g>
<g><path style="opacity:1" fill="#776628" d="M 723.5,776.5 C 712.5,776.5 701.5,776.5 690.5,776.5C 697.313,775.509 704.313,775.175 711.5,775.5C 711.104,772.518 711.771,769.851 713.5,767.5C 714.48,770.086 714.813,772.753 714.5,775.5C 717.713,775.19 720.713,775.523 723.5,776.5 Z"/></g>
<g><path style="opacity:1" fill="#a68e38" d="M 496.5,777.5 C 489.646,777.176 482.979,777.509 476.5,778.5C 478.081,783.015 477.748,787.348 475.5,791.5C 474.833,787.018 474.166,782.684 473.5,778.5C 470.695,777.681 467.695,777.181 464.5,777C 467.695,776.819 470.695,776.319 473.5,775.5C 473.187,772.753 473.52,770.086 474.5,767.5C 476.27,770.193 476.937,773.193 476.5,776.5C 482.842,776.666 489.175,776.5 495.5,776C 496,775.5 496.5,775 497,774.5C 497.74,775.749 497.573,776.749 496.5,777.5 Z"/></g>
<g><path style="opacity:1" fill="#b59b3d" d="M 690.5,776.5 C 701.5,776.5 712.5,776.5 723.5,776.5C 720.5,777.167 717.5,777.833 714.5,778.5C 713.834,782.684 713.167,787.018 712.5,791.5C 711.508,787.217 711.174,782.884 711.5,778.5C 704.5,777.833 697.5,777.167 690.5,776.5 Z"/></g>
<g><path style="opacity:1" fill="#4d421a" d="M 473.5,775.5 C 470.695,776.319 467.695,776.819 464.5,777C 467.695,777.181 470.695,777.681 473.5,778.5C 470.167,778.5 466.833,778.5 463.5,778.5C 463.5,777.5 463.5,776.5 463.5,775.5C 466.833,775.5 470.167,775.5 473.5,775.5 Z"/></g>
<g><path style="opacity:1" fill="#4f431a" d="M 476.5,778.5 C 482.979,777.509 489.646,777.176 496.5,777.5C 495.855,778.812 494.855,779.812 493.5,780.5C 492.304,780.154 492.304,779.654 493.5,779C 487.843,778.501 482.176,778.334 476.5,778.5 Z"/></g>
<g><path style="opacity:1" fill="#4f441a" d="M 690.5,776.5 C 697.5,777.167 704.5,777.833 711.5,778.5C 704.137,778.831 696.803,778.497 689.5,777.5C 689.624,776.893 689.957,776.56 690.5,776.5 Z"/></g>
<g><path style="opacity:1" fill="#4a4019" d="M 723.5,776.5 C 724.043,776.56 724.376,776.893 724.5,777.5C 721.232,778.487 717.898,778.82 714.5,778.5C 717.5,777.833 720.5,777.167 723.5,776.5 Z"/></g>
<g><path style="opacity:1" fill="#eac84e" d="M 590.5,783.5 C 592.467,783.261 594.301,783.594 596,784.5C 596.499,788.821 596.666,793.154 596.5,797.5C 596.726,804.876 596.392,812.209 595.5,819.5C 594.944,824.161 594.11,828.828 593,833.5C 591.691,828.934 591.191,824.267 591.5,819.5C 591.159,811.325 590.492,803.325 589.5,795.5C 589.183,791.298 589.517,787.298 590.5,783.5 Z"/></g>
<g><path style="opacity:1" fill="#a99039" d="M 809.5,777.5 C 812.55,779.549 814.883,782.216 816.5,785.5C 816.631,786.239 816.464,786.906 816,787.5C 815.184,786.177 814.017,785.511 812.5,785.5C 810.611,784.396 808.945,783.063 807.5,781.5C 808.967,782.292 810.3,782.292 811.5,781.5C 810.37,780.378 809.703,779.044 809.5,777.5 Z"/></g>
<g><path style="opacity:1" fill="#746327" d="M 371.5,783.5 C 371.586,784.496 371.252,785.329 370.5,786C 371.094,786.464 371.761,786.631 372.5,786.5C 371.263,789.467 369.263,790.467 366.5,789.5C 368.185,787.429 369.852,785.429 371.5,783.5 Z"/></g>
<g><path style="opacity:1" fill="#86732d" d="M 596.5,797.5 C 596.666,793.154 596.499,788.821 596,784.5C 594.301,783.594 592.467,783.261 590.5,783.5C 592.54,780.866 594.707,780.866 597,783.5C 597.815,788.352 597.648,793.019 596.5,797.5 Z"/></g>
<g><path style="opacity:1" fill="#6d5e24" d="M 812.5,785.5 C 814.017,785.511 815.184,786.177 816,787.5C 816.464,786.906 816.631,786.239 816.5,785.5C 819.157,786.479 819.823,788.146 818.5,790.5C 816.059,789.291 814.059,787.624 812.5,785.5 Z"/></g>
<g><path style="opacity:1" fill="#675923" d="M 652.5,787.5 C 655.129,789.394 656.795,792.06 657.5,795.5C 657.167,795.833 656.833,796.167 656.5,796.5C 654.885,793.605 653.552,790.605 652.5,787.5 Z"/></g>
<g><path style="opacity:1" fill="#736227" d="M 528.5,787.5 C 529.376,787.369 530.043,787.702 530.5,788.5C 525.054,799.174 524.388,798.841 528.5,787.5 Z"/></g>
<g><path style="opacity:0.118" fill="#fcd359" d="M 941.5,810.5 C 941.5,809.5 941.5,808.5 941.5,807.5C 947.058,803.607 950.392,805.274 951.5,812.5C 950.448,812.649 949.448,812.483 948.5,812C 946.952,807.894 944.618,807.394 941.5,810.5 Z"/></g>
<g><path style="opacity:0.235" fill="#fbd553" d="M 248.5,808.5 C 248.5,809.5 248.5,810.5 248.5,811.5C 246.527,810.513 244.527,809.513 242.5,808.5C 241.155,809.347 240.155,810.513 239.5,812C 238.552,812.483 237.552,812.649 236.5,812.5C 238.393,804.206 242.393,802.873 248.5,808.5 Z"/></g>
<g><path style="opacity:1" fill="#d2b446" d="M 552.5,811.5 C 555.084,812.048 556.084,813.715 555.5,816.5C 557.604,816.201 559.604,816.534 561.5,817.5C 560.332,819.217 558.665,819.884 556.5,819.5C 556.785,821.288 556.452,822.955 555.5,824.5C 553.889,823.68 553.222,822.346 553.5,820.5C 550.753,820.813 548.086,820.48 545.5,819.5C 547.023,817.717 549.023,817.051 551.5,817.5C 551.325,815.379 551.659,813.379 552.5,811.5 Z"/></g>
<g><path style="opacity:1" fill="#d2b446" d="M 633.5,811.5 C 634.496,811.414 635.329,811.748 636,812.5C 636.494,814.134 636.66,815.801 636.5,817.5C 638.977,817.051 640.977,817.717 642.5,819.5C 638.542,819.852 635.375,821.518 633,824.5C 631.731,823.095 631.231,821.429 631.5,819.5C 629.335,819.884 627.668,819.217 626.5,817.5C 628.396,816.534 630.396,816.201 632.5,816.5C 632.366,814.708 632.699,813.042 633.5,811.5 Z"/></g>
<g><path style="opacity:1" fill="#7c6a29" d="M 589.5,795.5 C 590.492,803.325 591.159,811.325 591.5,819.5C 591.167,819.5 590.833,819.5 590.5,819.5C 589.724,811.525 589.39,803.525 589.5,795.5 Z"/></g>
<g><path style="opacity:1" fill="#766528" d="M 590.5,819.5 C 590.833,819.5 591.167,819.5 591.5,819.5C 591.191,824.267 591.691,828.934 593,833.5C 594.11,828.828 594.944,824.161 595.5,819.5C 595.666,824.511 595.499,829.511 595,834.5C 594.581,835.672 593.915,836.672 593,837.5C 590.849,831.7 590.016,825.7 590.5,819.5 Z"/></g>
<g><path style="opacity:1" fill="#e2c04b" d="M 282.5,718.5 C 282.177,724.69 282.51,730.69 283.5,736.5C 283.333,831.834 283.5,927.167 284,1022.5C 289.283,1042.78 302.117,1055.28 322.5,1060C 504.166,1060.5 685.833,1060.67 867.5,1060.5C 870.428,1060.57 873.095,1061.23 875.5,1062.5C 872.797,1063.96 869.797,1064.8 866.5,1065C 683.833,1065.67 501.167,1065.67 318.5,1065C 300.281,1059.12 287.448,1047.28 280,1029.5C 279.667,1026.83 279.333,1024.17 279,1021.5C 278.5,945.167 278.333,868.834 278.5,792.5C 279.773,767.831 281.106,743.164 282.5,718.5 Z"/></g>
<g><path style="opacity:1" fill="#e9c750" d="M 273.5,657.5 C 273.167,787.334 273.5,917.001 274.5,1046.5C 277.973,1057.74 284.639,1066.74 294.5,1073.5C 296.426,1075.29 298.759,1076.29 301.5,1076.5C 303.265,1077.46 305.265,1077.79 307.5,1077.5C 376.825,1079.5 446.492,1080.16 516.5,1079.5C 543.482,1081.33 570.815,1082.16 598.5,1082C 599.337,1083.01 599.67,1084.18 599.5,1085.5C 500.999,1085.17 402.665,1085.5 304.5,1086.5C 283.334,1081.17 270.501,1067.83 266,1046.5C 265.5,925.5 265.333,804.5 265.5,683.5C 265.833,683.5 266.167,683.5 266.5,683.5C 266.333,700.837 266.5,718.17 267,735.5C 267.169,729.141 267.669,722.807 268.5,716.5C 269.167,716.833 269.833,717.167 270.5,717.5C 271.503,697.342 272.503,677.342 273.5,657.5 Z"/></g>
<g><path style="opacity:1" fill="#a58d38" d="M 598.5,949.5 C 593.797,949.437 589.13,949.771 584.5,950.5C 586.807,948.953 589.473,948.287 592.5,948.5C 594.696,948.505 596.696,948.838 598.5,949.5 Z"/></g>
<g><path style="opacity:1" fill="#f2cf51" d="M 646.5,947.5 C 665.927,947.088 674.76,956.421 673,975.5C 667.854,988.556 658.354,993.723 644.5,991C 642.479,990.599 641.145,989.432 640.5,987.5C 654.425,975.575 655.091,962.908 642.5,949.5C 643.949,948.828 645.282,948.161 646.5,947.5 Z"/></g>
<g><path style="opacity:1" fill="#ebc94f" d="M 709.5,947.5 C 719.128,947.213 726.295,951.546 731,960.5C 734.511,974.605 729.677,984.438 716.5,990C 712.5,990.667 708.5,990.667 704.5,990C 717.716,986.113 723.883,977.28 723,963.5C 721.21,955.877 716.71,950.543 709.5,947.5 Z"/></g>
<g><path style="opacity:1" fill="#f2cf51" d="M 529.5,948.5 C 533.182,948.335 536.848,948.501 540.5,949C 541.624,949.249 542.624,949.749 543.5,950.5C 531.537,965.057 533.203,977.891 548.5,989C 532.847,996.673 521.681,992.506 515,976.5C 512.607,963.4 517.44,954.067 529.5,948.5 Z"/></g>
<g><path style="opacity:1" fill="#f6d352" d="M 598.5,949.5 C 616.449,955.83 620.615,967.496 611,984.5C 601.854,993.218 591.688,994.718 580.5,989C 572.137,981.049 569.637,971.549 573,960.5C 575.788,955.873 579.622,952.539 584.5,950.5C 589.13,949.771 593.797,949.437 598.5,949.5 Z"/></g>
<g><path style="opacity:1" fill="#ebc94f" d="M 476.5,988.5 C 479.736,989.865 483.069,990.865 486.5,991.5C 463.784,996.295 453.284,986.962 455,963.5C 458.2,956.609 463.367,952.442 470.5,951C 463.102,956.238 460.268,963.405 462,972.5C 463.31,977.124 465.644,981.124 469,984.5C 471.158,986.494 473.658,987.828 476.5,988.5 Z"/></g>
<g><path style="opacity:1" fill="#d1b346" d="M 884.5,958.5 C 891.486,958.331 893.153,961.164 889.5,967C 882.416,967.475 880.749,964.642 884.5,958.5 Z"/></g>
<g><path style="opacity:1" fill="#d7b748" d="M 301.5,958.5 C 308.486,958.331 310.153,961.164 306.5,967C 299.416,967.475 297.749,964.642 301.5,958.5 Z"/></g>
<g><path style="opacity:1" fill="#ac933a" d="M 891.5,981.5 C 888.098,981.342 884.764,981.676 881.5,982.5C 882.898,980.467 884.898,979.467 887.5,979.5C 889.355,979.34 890.688,980.007 891.5,981.5 Z"/></g>
<g><path style="opacity:1" fill="#e3c34c" d="M 308.5,996.5 C 305.57,997.299 302.57,997.632 299.5,997.5C 292.481,992.873 291.815,987.373 297.5,981C 302.946,978.382 307.446,979.549 311,984.5C 312.112,988.981 311.279,992.981 308.5,996.5 Z"/></g>
<g><path style="opacity:1" fill="#e6c44d" d="M 891.5,981.5 C 895.083,982.422 896.75,984.756 896.5,988.5C 896.731,993.048 894.731,996.048 890.5,997.5C 887.763,997.599 885.096,997.265 882.5,996.5C 877.739,991.999 877.406,987.332 881.5,982.5C 884.764,981.676 888.098,981.342 891.5,981.5 Z"/></g>
<g><path style="opacity:1" fill="#7f6c2b" d="M 476.5,988.5 C 480.228,988.795 483.895,989.461 487.5,990.5C 487.376,991.107 487.043,991.44 486.5,991.5C 483.069,990.865 479.736,989.865 476.5,988.5 Z"/></g>
<g><path style="opacity:1" fill="#4f441c" d="M 308.5,996.5 C 308.389,997.117 308.056,997.617 307.5,998C 304.633,998.801 301.966,998.634 299.5,997.5C 302.57,997.632 305.57,997.299 308.5,996.5 Z"/></g>
<g><path style="opacity:1" fill="#726126" d="M 882.5,996.5 C 885.096,997.265 887.763,997.599 890.5,997.5C 889.551,998.152 888.385,998.486 887,998.5C 884.992,998.693 883.492,998.026 882.5,996.5 Z"/></g>
<g><path style="opacity:1" fill="#ebc84c" d="M 898.5,1012.5 C 898.5,1015.83 898.5,1019.17 898.5,1022.5C 897.758,1024.43 896.758,1026.26 895.5,1028C 880.921,1031.75 875.088,1026.25 878,1011.5C 881.343,1006.78 885.843,1005.28 891.5,1007C 894.595,1007.94 896.929,1009.77 898.5,1012.5 Z"/></g>
<g><path style="opacity:1" fill="#e8c64e" d="M 297.5,1006.5 C 308.719,1005.56 314.219,1010.56 314,1021.5C 310.628,1028.43 305.128,1030.93 297.5,1029C 288.217,1021.42 288.217,1013.92 297.5,1006.5 Z"/></g>
<g><path style="opacity:1" fill="#b1973b" d="M 898.5,1012.5 C 901.167,1015.83 901.167,1019.17 898.5,1022.5C 898.5,1019.17 898.5,1015.83 898.5,1012.5 Z"/></g>
<g><path style="opacity:1" fill="#fad754" d="M 327.5,1045.5 C 505.833,1045.5 684.167,1045.5 862.5,1045.5C 862.5,1046.83 862.5,1048.17 862.5,1049.5C 684.5,1049.67 506.5,1049.5 328.5,1049C 327.663,1047.99 327.33,1046.82 327.5,1045.5 Z"/></g>
<g><path style="opacity:1" fill="#7f6920" d="M 915.5,1041.5 C 915.833,1041.5 916.167,1041.5 916.5,1041.5C 916.785,1044.83 916.118,1047.83 914.5,1050.5C 914.963,1047.52 915.296,1044.52 915.5,1041.5 Z"/></g>
<g><path style="opacity:1" fill="#cdab34" d="M 911.5,1016.5 C 909.733,1036.55 900.066,1051.38 882.5,1061C 880.187,1061.66 877.854,1062.16 875.5,1062.5C 873.095,1061.23 870.428,1060.57 867.5,1060.5C 890.618,1055.38 903.618,1041.05 906.5,1017.5C 907.49,1011.36 907.823,1005.02 907.5,998.5C 908.931,998.881 909.764,999.881 910,1001.5C 910.333,997.167 910.667,992.833 911,988.5C 911.5,997.827 911.666,1007.16 911.5,1016.5 Z"/></g>
<g><path style="opacity:1" fill="#d3b139" d="M 923.5,971.5 C 924.498,994.661 924.831,1017.99 924.5,1041.5C 921.813,1065.52 908.813,1080.52 885.5,1086.5C 884.391,1085.71 883.058,1085.21 881.5,1085C 891.814,1083.78 891.814,1081.94 881.5,1079.5C 881.5,1079.17 881.5,1078.83 881.5,1078.5C 882.568,1077.57 883.901,1077.23 885.5,1077.5C 888.649,1077.58 891.316,1076.58 893.5,1074.5C 903.31,1069.02 910.31,1061.02 914.5,1050.5C 916.118,1047.83 916.785,1044.83 916.5,1041.5C 916.938,1019.31 917.605,1004.31 918.5,996.5C 920.39,996.297 921.89,996.963 923,998.5C 923.5,991.174 923.666,983.841 923.5,976.5C 923.5,974.833 923.5,973.167 923.5,971.5 Z"/></g>
<g><path style="opacity:1" fill="#4b411b" d="M 294.5,1073.5 C 297.241,1073.71 299.574,1074.71 301.5,1076.5C 298.759,1076.29 296.426,1075.29 294.5,1073.5 Z"/></g>
<g><path style="opacity:1" fill="#524619" d="M 893.5,1074.5 C 891.316,1076.58 888.649,1077.58 885.5,1077.5C 887.89,1075.98 890.557,1074.98 893.5,1074.5 Z"/></g>
<g><path style="opacity:1" fill="#716025" d="M 307.5,1077.5 C 498.764,1078.5 690.097,1078.83 881.5,1078.5C 881.5,1078.83 881.5,1079.17 881.5,1079.5C 759.833,1079.5 638.167,1079.5 516.5,1079.5C 446.492,1080.16 376.825,1079.5 307.5,1077.5 Z"/></g>
<g><path style="opacity:1" fill="#e8c54b" d="M 516.5,1079.5 C 638.167,1079.5 759.833,1079.5 881.5,1079.5C 891.814,1081.94 891.814,1083.78 881.5,1085C 883.058,1085.21 884.391,1085.71 885.5,1086.5C 691.815,1087.83 498.148,1087.83 304.5,1086.5C 402.665,1085.5 500.999,1085.17 599.5,1085.5C 599.67,1084.18 599.337,1083.01 598.5,1082C 570.815,1082.16 543.482,1081.33 516.5,1079.5 Z"/></g>
</svg>
